<svg id="Pattern" xmlns="http://www.w3.org/2000/svg" xmlns:xlink="http://www.w3.org/1999/xlink" width="300" height="300" viewBox="0 0 300 300">
  <defs>
    <style>
      .cls-1 {
        fill: none;
      }

      .cls-2 {
        fill: #f5f5f5;
      }

      .cls-3 {
        fill: #36a8e0;
      }

      .cls-4 {
        fill: url(#Nueva_muestra_de_motivo_91);
      }
    </style>
    <pattern id="Nueva_muestra_de_motivo_91" data-name="Nueva muestra de motivo 91" width="300" height="300" patternUnits="userSpaceOnUse" viewBox="0 0 300 300">
      <rect class="cls-1" width="300" height="300"/>
      <path class="cls-2" d="M145.14,296.45a1,1,0,0,1-1,1,10.37,10.37,0,0,1-6.31-2.25,1,1,0,0,1-.74.9c-1.19.32-2.55.2-3.72.57,0,1.1,0,2.2-.08,3.3H150a50.23,50.23,0,0,1-4.68-7C145.26,294.14,145.19,295.28,145.14,296.45Z"/>
      <path class="cls-2" d="M129.07,269.89c-6.27,3-9.8,12.65-13.57,17.94-.09.14-.19.27-.29.4,5.32,3.09,9.74,7.42,14.06,11.77h1.58C131.22,289.93,129.76,279.92,129.07,269.89Z"/>
      <path class="cls-2" d="M114.21,289.58c-2.88,3.76-6.51,7.31-11.42,7.8-5.57.56-10.72-1.59-15.37-4.95v0h0v0a.62.62,0,0,1,0,.23c0,.11,0,.21-.07.32l.35.56c.24.22-.08.65-.35.46-.09-.07-.2-.12-.29-.19-1,2.19-3.21,4.35-4.53,6l-.11.13h43.8A69.67,69.67,0,0,0,114.21,289.58Z"/>
      <path class="cls-2" d="M74.31,275.35c7,9,21.56,26.38,33.18,17.73a25.44,25.44,0,0,0,4.76-4.74.78.78,0,0,1,.93-1.23c2.42-3.32,4.41-7,6.64-10.4,1.92-2.9,4-6.1,6.91-8.1C109.1,267.22,91.69,273,74.31,275.35Z"/>
      <path class="cls-2" d="M261.37,256.54c6.49-3.56,1-14.91-1.43-19.58-2.72-5.2-6.58-12.16-11.91-15.72,5.91,7.67,8.93,18.13,11.33,27.26C260.06,251.13,260.74,253.82,261.37,256.54Z"/>
      <path class="cls-2" d="M83.77,294.78a11.21,11.21,0,0,1,2.69-2.88.55.55,0,0,1,.17,0c-5.29-4-9.89-9.55-13.64-14.35.14,5.58.19,11.24.53,16.83a.92.92,0,0,1,.3,1.08c-.06.17-.13.34-.2.51q.15,2,.36,4.08h5.44l.48-.56Q81.81,297.09,83.77,294.78Z"/>
      <path class="cls-2" d="M165.37,290.51c-2.93-5.78-7.34-13.85-13.56-16.69a16.89,16.89,0,0,0-12-1c-4.65,1.57-6.3,4.49-7.12,9.07a.61.61,0,0,1-.09.2c.38,4.13.71,8.27.78,12.41.73-.15,1.46-.16,2.21-.25a30,30,0,0,0-.89-3.69c-.07-.18-.16-.35-.22-.53a1.05,1.05,0,0,1,1.92-.81c.18.37.32.73.45,1.08a7.58,7.58,0,0,0,6.35,5,29.14,29.14,0,0,0,0-6.6c-.16-1,1.33-1.9,1.85-.78A48.08,48.08,0,0,0,152.75,300h15.3C168.15,296.73,166.8,293.34,165.37,290.51Z"/>
      <path class="cls-2" d="M256.93,246.08c-2.4-8.75-5.44-18-11.16-24.93a1.41,1.41,0,0,1-.13-.24,1.56,1.56,0,0,1-.22.23,1.16,1.16,0,0,1-.55.25c.41,8.39.76,17.43,2.19,26.15C250.49,248.88,254.29,248.94,256.93,246.08Z"/>
      <path class="cls-2" d="M33.2,255.86c-.92-3.15-5.16-4.38-8-5.1A79.55,79.55,0,0,0,0,248.88v7.6c6.25.39,12.48,1.16,18.53,1.77C20.4,258.43,34.44,260.11,33.2,255.86Z"/>
      <path class="cls-2" d="M16.29,226.06c1.26-.72.49-.84-.06-2.6-1.36-4.28-3.25-16.08-7.92-19.84a78,78,0,0,1-3,9.17,52.42,52.42,0,0,1-2,4.85c3.83,3.11,7.54,6.34,11.54,9.2C15.31,226.58,15.81,226.33,16.29,226.06Z"/>
      <path class="cls-2" d="M69.64,300h2.21c0-.42,0-.85,0-1.27A5.64,5.64,0,0,1,69.64,300Z"/>
      <path class="cls-2" d="M4.84,207.21c.45-1.35.75-3.37,1.77-4.52a4.73,4.73,0,0,0-2.93,0c-1.25.38-2.47.84-3.68,1.32v14.15a4.11,4.11,0,0,0,.58-.76A52.81,52.81,0,0,0,4.84,207.21Z"/>
      <path class="cls-2" d="M12.66,228a134.13,134.13,0,0,1-10-9.18,6.11,6.11,0,0,1-2.38,2.31l-.23.1V233.3a68.72,68.72,0,0,0,10.15-4.08Z"/>
      <path class="cls-2" d="M17.52,271.83a1.12,1.12,0,0,1-.93.17,1.63,1.63,0,0,1-.11.23l1.09,0C17.55,272.11,17.54,272,17.52,271.83Z"/>
      <path class="cls-2" d="M65.54,300h.82a4.32,4.32,0,0,1-.76-.42Z"/>
      <path class="cls-2" d="M27.91,261.09c-6.57.28-13-1-19.56-1.62-2.73-.25-5.52-.46-8.35-.61v8.81c6.89-.47,13.77-1.37,20.69-1.08a1.16,1.16,0,0,1,1.12.85,23.42,23.42,0,0,1,.05,6.09,1.19,1.19,0,0,1-1.17,1.17A190.37,190.37,0,0,0,0,274.86V300H32.6a170.52,170.52,0,0,1-4.73-38.68A1.57,1.57,0,0,1,27.91,261.09Z"/>
      <path class="cls-2" d="M239,71.57c4.67-7.79,9.25-16.38,10.31-25.29a.86.86,0,0,1,.09-.27.86.86,0,0,1-.32,0,1.09,1.09,0,0,1-.56-.22c-5.79,6.09-12.08,12.59-17.4,19.65C232.55,68.84,235.14,71.63,239,71.57Z"/>
      <path class="cls-2" d="M207.09,175.72a77.89,77.89,0,0,1-3,9.16,51.4,51.4,0,0,1-2,4.86c3.83,3.11,7.54,6.33,11.55,9.2.49-.26,1-.51,1.46-.79,1.26-.71.5-.83-.06-2.59C213.65,191.27,211.76,179.47,207.09,175.72Z"/>
      <path class="cls-2" d="M199,193.21a7.67,7.67,0,0,1-4.71.41c-1,4.1-2,8.62-4,12.38a5.55,5.55,0,0,0,3.12.53c5.37-.63,10.65-2.89,15.47-5.22l2.52-1.23a132.5,132.5,0,0,1-10-9.19A6.16,6.16,0,0,1,199,193.21Z"/>
      <path class="cls-2" d="M181.19,187.22c1.39,5.41,3.47,13.92,7.44,17.58l.12-.35c0-.13,0-.27,0-.41a.2.2,0,0,1,.18-.19c1.16-3.57,2.09-7.2,3.22-10.79C188.33,191.78,184.28,189.12,181.19,187.22Z"/>
      <path class="cls-2" d="M236.78,75.27l1.21-2c-3.76-.38-6.34-3.25-7.68-6.71-6.92,9.47-12,20-11.68,31.91C226,92.05,231.74,83.5,236.78,75.27Z"/>
      <path class="cls-2" d="M199.37,189.52a53.68,53.68,0,0,0,4.25-10.21c.45-1.35.75-3.37,1.77-4.53a4.81,4.81,0,0,0-2.93,0c-7.73,2.39-14.57,6.87-21.83,10.35a.56.56,0,0,1,0,.12C185.81,187.58,196.29,194.78,199.37,189.52Z"/>
      <path class="cls-2" d="M234.53,82c7.07,2.24,11.47-9.57,13.17-14.56,1.88-5.55,4.25-13.16,3.13-19.47-1.45,9.57-6.93,19-11.87,27C237.54,77.32,236.07,79.67,234.53,82Z"/>
      <path class="cls-2" d="M13.62,192.82A100.5,100.5,0,0,1,0,191.92v-7.53c1.15-7.13.45-14.87.93-22a.82.82,0,0,0-.93-.83v-5.37c4.92.3,9.76.37,14.76.22,3.27-.1,6.88-.2,9.94,1.1,2.89,1.23,1.88,6.57,1.71,9-.41,6-1.9,11.74-1.75,17.71.05,2,.69,5.28-.67,6.95C22.2,193.37,16,192.76,13.62,192.82Zm2.53-30.22c-.64,2.24-.54,4.55-.82,6.85-.05.46.42.8.83.82,1.78.1,3.64.71,5.38.07a.93.93,0,0,0,.68-.89,28.91,28.91,0,0,0-.65-8.61,1,1,0,0,0-.91-.69c-1.64,0-3.52-.1-4.95.83A.88.88,0,0,0,16.15,162.6ZM4.59,179.09c4.27.24,8.57,1,12.85,1a1,1,0,0,0,0-1.91c-4.27-.17-8.59-.49-12.85-.33A.64.64,0,0,0,4.59,179.09Zm5.84,6c1.5,0,6,.94,7-.53a.66.66,0,0,0,0-.69c-1-1.48-5.46-.57-7-.53a33.06,33.06,0,0,0-6.57.56.33.33,0,0,0,0,.63A34.62,34.62,0,0,0,10.43,185.11Z"/>
      <path class="cls-2" d="M253.91,164.12c1.15.11,9.81,1.15,9-1.47-.57-2-3.18-2.7-4.92-3.15a52.59,52.59,0,0,0-19.29-.8c-2.23.27-12.26,1.33-11.08,5.3,0,0,.05,0,.08,0C236.2,161.89,245.36,163.26,253.91,164.12Z"/>
      <path class="cls-2" d="M252.71,172.6a.61.61,0,0,1-.07.14l.67,0a2.06,2.06,0,0,0,0-.26A.67.67,0,0,1,252.71,172.6Z"/>
      <path class="cls-2" d="M264,195.09c1.12,3.77,2.84,8.29,2,12.26-.89,4.39-10.08,3.39-13.34,3.61-6,.42-12,1-17.84-.44-1.74-.42-4-.82-5-2.46-.79-1.27-.47-3.39-.45-4.81.17-12.82.82-25.6.46-38.43a.57.57,0,0,0,0-.14,93.12,93.12,0,0,1,17.83.19c4,.37,8,1.18,12.06,1,0,0,0,.09,0,.14A104.86,104.86,0,0,0,264,195.09Zm-8-25.3a.73.73,0,0,0-.69-.53c-7-.29-14,1.4-21,.65-.52-.06-.63.81-.12.92h.07c-1,1-.87,2.37-.65,3.69a.72.72,0,0,0,.7.54,130.66,130.66,0,0,1,21-.8.74.74,0,0,0,.72-.72A14.34,14.34,0,0,0,255.93,169.79Z"/>
      <path class="cls-2" d="M247,133.26c1.31-1.33,2.5-.09,2.64-3.07a1.13,1.13,0,0,1,2.08-.57,7.76,7.76,0,0,0,3.85,2.71,10.07,10.07,0,0,0-.12-3.13c-.25-1.2,1.45-2,2.07-.87,1,1.89,4,7.87,7,6.91,2.56-.81,1-5,.09-6.5-2.08-3.38-5.75-6.65-9.82-7.29s-6.81,2.46-9.12,5.45A60.8,60.8,0,0,1,247,133.26Z"/>
      <path class="cls-2" d="M257.46,248c-2.87,2.45-6.73,2.33-10.16.91,2.07,11.55,6.16,22.46,15,30.49.41-9.75-1.78-19.84-4.24-29.17Z"/>
      <path class="cls-2" d="M169.43,143.69c-2.13-.32-2.14,1-2.85,2.66a57.18,57.18,0,0,0-3.81,10.84c-.43,2-1,4.51-.46,6.58.12.45,2.31,6.95,3.57,4.17,1.51-3.32,1.67-7.17,1.45-10.75-.08-1.38,1.83-1.45,2.25-.31a11.26,11.26,0,0,0,2.75,3.7,7.23,7.23,0,0,0,1.46-7c-.27-1,1.19-2.08,1.93-1.12,1.57,2,2.53,1.77,3.85.77-1.42-2.3-2.71-4.68-4-7.06A17.05,17.05,0,0,0,169.43,143.69Z"/>
      <path class="cls-2" d="M242.45,125.26c2,5.49,2.47,11.5,3.07,17.29-13.57,1.16-27.13,2.46-40.38,5.71a121.15,121.15,0,0,0-18.57,6.29,3.24,3.24,0,0,1-4-1.17,1.23,1.23,0,0,0-.76-1c-.8-1.25-1.45-2.72-2.08-3.85-1.82-3.25-3.49-6.56-5.49-9.71,16.53-6.21,33.1-12.14,49.87-17.71,3.39-1.12,6.56-2.86,10.15-3.3C238.67,117.22,241.22,121.77,242.45,125.26Zm-7.51-2.66a1,1,0,0,0-.9-.52,13.19,13.19,0,0,0-3.25.51,4.24,4.24,0,0,0-2.61,1.39.79.79,0,0,0,.35,1.14,7.47,7.47,0,0,0,.17,5.25,4.4,4.4,0,0,0,3.77,2.72,3.9,3.9,0,0,0,3.68-2.69C237.14,127.92,236,124.85,234.94,122.6Z"/>
      <path class="cls-2" d="M231,124.65c-.39.13-.81.33-1.22.47a6.74,6.74,0,0,0,.38,4.42,2.89,2.89,0,0,0,2.33,1.61,1.93,1.93,0,0,0,1.83-1.68,8.74,8.74,0,0,0-.9-5.29A10.06,10.06,0,0,0,231,124.65Z"/>
      <path class="cls-2" d="M39.48,54.34a1.13,1.13,0,0,1,2.08-.56,7.78,7.78,0,0,0,3.85,2.7,10,10,0,0,0-.11-3.12c-.26-1.21,1.44-2,2.06-.87,1,1.88,4,7.87,7,6.91,2.57-.82,1-5,.1-6.51-2.08-3.38-5.76-6.64-9.82-7.28s-6.82,2.45-9.12,5.45a57.34,57.34,0,0,1,1.3,6.36C38.16,56.08,39.35,57.32,39.48,54.34Z"/>
      <path class="cls-2" d="M256.43,70.5a58.17,58.17,0,0,0-3.82,10.84c-.43,2-1,4.51-.46,6.58.12.46,2.31,7,3.58,4.17,1.51-3.31,1.66-7.17,1.45-10.75-.09-1.37,1.83-1.45,2.25-.3a11.19,11.19,0,0,0,2.74,3.69,7.21,7.21,0,0,0,1.47-6.94c-.27-1,1.18-2.08,1.93-1.12,1.56,2,2.52,1.76,3.85.76-1.43-2.29-2.71-4.68-4-7.06a17.46,17.46,0,0,0-6.15-2.53C257.15,67.53,257.13,68.88,256.43,70.5Z"/>
      <path class="cls-2" d="M269.54,72.66c.64,1.13,1.29,2.6,2.09,3.85a1.22,1.22,0,0,1,.75,1,3.22,3.22,0,0,0,4,1.17A123,123,0,0,1,295,72.42q2.5-.61,5-1.14V50q-18.06,6.26-35.94,13C266.06,66.09,267.72,69.41,269.54,72.66Z"/>
      <path class="cls-2" d="M194.22,6a23.53,23.53,0,0,1-.8-6h9a1.27,1.27,0,0,0,.12.59,20.51,20.51,0,0,0,2.06,3.46,8.31,8.31,0,0,0,.71.86c1.16,1.24,3-.62,1.85-1.85-.07-.08-.12-.17-.19-.25l.06-.25a1.1,1.1,0,0,0,1.36-1.07A8.36,8.36,0,0,1,208.57,0h20a.86.86,0,0,0-.38.56,1.14,1.14,0,0,0,0,1.53c.26.27.49.58.73.87.5,1.26,1.36,2.58,2.41,2.77a1.37,1.37,0,0,0,1.33-.66,1,1,0,0,0,1.09-.29A7.36,7.36,0,0,0,235.35,0h8.26a26.24,26.24,0,0,1-21.22,25.19c-8.5,1.56-16.54-2.34-22-8.55a.88.88,0,0,0-.7-.82A29.76,29.76,0,0,1,194.22,6Zm23.7,1.82a17.18,17.18,0,0,1,2.63,1.44,2,2,0,0,1,.74.85h0a1.84,1.84,0,0,1-.55.21c-.66.18-1.26.08-1.71.7a.56.56,0,0,0,0,.6c1,1.3,3.72.22,3.91-1.31.25-2-3.2-3.12-4.58-3.53C217.75,6.59,217.34,7.53,217.92,7.81Zm-9.37,6.5c6.92,8.21,18.51,7.13,24.2-2,.38-.61-.53-1.33-1-.77-6.21,7.6-15.17,9.59-22.56,2.12C208.78,13.23,208.17,13.86,208.55,14.31Z"/>
      <path class="cls-2" d="M291.8,117.13a.43.43,0,0,1-.34.38c-1.88.56-3.77,2.74-3.07,4.8.85,2.51,3.61,2.47,5.77,1.94a25.93,25.93,0,0,1-1.12-2.59A28,28,0,0,1,291.8,117.13Z"/>
      <path class="cls-2" d="M242,13.92c2.28,1.31,4.69,4.44,2,6.62-2,1.62-4.85,1.11-7-.13l0,0c.32,1.45,2.37,10.7,4.49,9.49a12.37,12.37,0,0,0,4.77-4.67,30.59,30.59,0,0,0,3.52-13.69A68.09,68.09,0,0,0,249.34,0h-3.42a28.45,28.45,0,0,1-4.15,13.86Z"/>
      <path class="cls-2" d="M205.4,0h-.09l.06.08Z"/>
      <path class="cls-2" d="M229.56.26a1.35,1.35,0,0,1,.95.49l.64.84.29.23A17.26,17.26,0,0,1,232.69,0h-3.41a1.1,1.1,0,0,1,.14.11C229.47.15,229.51.21,229.56.26Z"/>
      <path class="cls-2" d="M287.78,97.29a11.86,11.86,0,0,0,3.16-.9c.63-.34,1.54.39,1.05,1-3.57,4.83-7,10.19-8.73,16-1.07,3.52-2,7.55-.91,11.2,1.42,4.74,3.53,4.61,7.3,2.49.49-.28,1.23.18,1,.78-2.8,7.68,2.87,13.36,9.33,17.26V132.34a29.79,29.79,0,0,1-5-6.48l-.09.06c-3,1.08-7.3.47-8.29-3.12a4.9,4.9,0,0,1,.59-4.13,5.41,5.41,0,0,1,1.66-1.57,5.86,5.86,0,0,1,2.34-.51.5.5,0,0,1,.57.33c-1.51-8.54,1.25-17,8.23-22.33v-10a15.7,15.7,0,0,0-1.75.39C292.29,86.77,289.44,91.71,287.78,97.29Z"/>
      <path class="cls-2" d="M295.52,221.52c-1,4.1-2,8.62-4,12.39a5.45,5.45,0,0,0,3.12.52A31.92,31.92,0,0,0,300,233.3V221.21A7.91,7.91,0,0,1,295.52,221.52Z"/>
      <path class="cls-2" d="M276,258.06a.75.75,0,0,1,.13-.06c7.72-1.9,15.8-2,23.87-1.52v-7.6c-2,.14-4.06.34-6.05.58C290.35,249.9,274.09,251.61,276,258.06Z"/>
      <path class="cls-2" d="M279.46,259.16a.56.56,0,0,1,.05.23c.39,13.56.08,27.08-.27,40.61H300V274.86c-4.46.26-8.92.65-13.38,1.14a1.15,1.15,0,0,1-1.14-.87c-.36-2.14-.54-4.35,1.06-6l-.12,0c-.83-.18-.65-1.58.2-1.49a75.69,75.69,0,0,0,13.38,0v-8.81A131.38,131.38,0,0,0,279.46,259.16Z"/>
      <path class="cls-2" d="M300,112V97.43a22.73,22.73,0,0,0-6.07,10.85A30.14,30.14,0,0,0,300,112Z"/>
      <path class="cls-2" d="M281.89,213.17c4.86,2.18,14.47,8.72,18.11,5V204c-6.27,2.5-12.07,6.11-18.15,9A.56.56,0,0,0,281.89,213.17Z"/>
      <path class="cls-2" d="M295.9,122.73a31.83,31.83,0,0,0,4.1,6.15V113.6a27.38,27.38,0,0,1-6.29-4.25A21.62,21.62,0,0,0,295.9,122.73Z"/>
      <path class="cls-2" d="M290,232.35c0-.13,0-.27,0-.4a.2.2,0,0,1,.18-.19c1.16-3.58,2.09-7.21,3.21-10.8-3.82-1.28-7.88-3.94-11-5.84,1.4,5.41,3.47,13.93,7.44,17.58Z"/>
      <path class="cls-2" d="M0,128.88V113.6c13.61,6.82,34,4.66,45.15-4.06a.7.7,0,0,0,.14-.16c1.09,12.6-9.83,27.43-23.08,29.17C13.59,139.67,5.46,135.32,0,128.88Zm27.92-5.62a7.82,7.82,0,0,0,2.9,4,1,1,0,0,0,1.39-.37,38.47,38.47,0,0,0,2.71-4.64c.64-1.23-1.22-2.31-1.85-1.08s-1.51,2.41-2.17,3.67a11,11,0,0,1-1.57-2.19C28.89,122,27.59,122.41,27.92,123.26ZM19,128.76a3.32,3.32,0,0,1,.54-.52,10.56,10.56,0,0,1,.27,2.81.82.82,0,0,0,1.63,0,10.23,10.23,0,0,0-.21-2.47,3,3,0,0,0-.64-1.47c-.93-1-2,.19-2.42,1C18,128.63,18.62,129.23,19,128.76Zm-6.76,3.18c3,6.18,12.41,4.42,13.76-2a.74.74,0,0,0-1.42-.39c-1.6,5-8.55,6.71-11.57,2A.45.45,0,0,0,12.28,131.94Zm-5.55-5.19a1.2,1.2,0,0,0,1.45-.19l2.67-2.66c1.11-1.09-.61-2.81-1.71-1.7l-1.85,1.87a1.57,1.57,0,0,1-.3-1,1.06,1.06,0,0,0-.65-1,.51.51,0,0,0-.7,0,1,1,0,0,0-.75.74A3.8,3.8,0,0,0,6.73,126.75Z"/>
      <path class="cls-2" d="M20.83,48.81c-.4.13-.81.33-1.23.46A6.73,6.73,0,0,0,20,53.69a2.91,2.91,0,0,0,2.33,1.61,1.91,1.91,0,0,0,1.83-1.68,8.72,8.72,0,0,0-.9-5.28A9.89,9.89,0,0,0,20.83,48.81Z"/>
      <path class="cls-2" d="M35.36,66.7C23.5,67.72,11.65,68.84,0,71.28V50q6.95-2.4,13.93-4.72c3.38-1.13,6.56-2.86,10.15-3.31,4.44-.55,7,4,8.22,7.49C34.24,54.91,34.76,60.92,35.36,66.7Zm-10.58-20a1,1,0,0,0-.89-.51,13.83,13.83,0,0,0-3.26.5A4.32,4.32,0,0,0,18,48.13a.79.79,0,0,0,.35,1.14,7.5,7.5,0,0,0,.18,5.26,4.35,4.35,0,0,0,3.76,2.71A3.87,3.87,0,0,0,26,54.55C27,52.07,25.84,49,24.78,46.75Z"/>
      <path class="cls-2" d="M16.5,34.18c5.27-.36,20.17,1.26,21.62-5.85,1.32-6.44-1.46-13.77-3.28-19.88C34,5.66,33.28,2.84,32.6,0H0V34.93C5.49,35,11,34.56,16.5,34.18Z"/>
      <path class="cls-2" d="M51.12,14.8c5.48-.65,5.63-8.9,5.4-14.8H45.3C45.17,5.48,45.93,15.41,51.12,14.8Z"/>
      <path class="cls-2" d="M6.82,137.39a30.61,30.61,0,0,1-6.82-5v12.82a59.17,59.17,0,0,0,6,3.1C4.84,144.51,4.77,140.87,6.82,137.39Z"/>
      <path class="cls-2" d="M186.9,3.61c.3-.69,1.4-.32,1.38.38-.35,11.06,3.85,20.1,14.58,22.86a15.1,15.1,0,0,1-3-7.3c-.31-.31-.63-.63-.93-1-2.05,1.68-5.32,2.33-6.93-.08s-.31-5.54,2-7A26.94,26.94,0,0,1,191.08,0V0H182a22.91,22.91,0,0,0,2.57,8.73C185.15,7,186.11,5.43,186.9,3.61Z"/>
      <path class="cls-2" d="M20.36,168.76a30.58,30.58,0,0,0-.43-6.7,15.67,15.67,0,0,0-2.58.29,1.15,1.15,0,0,1,0,.18,18,18,0,0,0-.42,6.14A12.05,12.05,0,0,0,20.36,168.76Z"/>
      <path class="cls-2" d="M218.83,47.77a7.83,7.83,0,0,0,3.08-1.46,22,22,0,0,0-2.84-3.11,24.4,24.4,0,0,0-2.47,1.19C216.78,45.35,217.62,48.05,218.83,47.77Z"/>
      <path class="cls-2" d="M193.42,17.47a2.08,2.08,0,0,0,2.14.8,5.12,5.12,0,0,0,2.1-1.15,31,31,0,0,1-3.24-4.87C193.23,13.7,192.23,15.83,193.42,17.47Z"/>
      <path class="cls-2" d="M242.65,19.54c2.08-1.39-.23-3.28-1.53-4.16a.82.82,0,0,1-.19-.18,29.31,29.31,0,0,1-3.48,4.23C239.09,20.21,241.08,20.58,242.65,19.54Z"/>
      <path class="cls-2" d="M157.33,4c3.29,2.23,9.09,3.45,10.44-1.93A10,10,0,0,0,168.05,0h-15.3A25.87,25.87,0,0,0,157.33,4Z"/>
      <path class="cls-2" d="M130.8,1.44c0-.48,0-1,0-1.44h-1.58l1.52,1.53A.28.28,0,0,0,130.8,1.44Z"/>
      <path class="cls-2" d="M63,.71A5.15,5.15,0,0,0,63.28,0H59.8C60.67,1.89,61.86,3.16,63,.71Z"/>
      <path class="cls-2" d="M75.39,5.59c.61-2,2.64-4,4-5.59H74c.1,1,.2,1.9.33,2.85A5.36,5.36,0,0,0,75.39,5.59Z"/>
      <path class="cls-2" d="M77,6.85a16.35,16.35,0,0,0,5.78,1.08A116.84,116.84,0,0,0,98.22,8c6-.35,11.87-.94,17.8-1.52,2.9-.29,5.81-.58,8.71-.8s4.6,0,5.48-1.57a1.63,1.63,0,0,1-.22-.17c-1.27-1.29-2.54-2.61-3.81-3.92H82.38c-1.23,1.55-2.51,3.06-3.68,4.66A15.58,15.58,0,0,1,77,6.85Z"/>
      <path class="cls-2" d="M279.5,29.48c1.65,2.66,5.25,3.31,8.08,4A56.12,56.12,0,0,0,300,34.93V0H279.24c-.18,7.22-.37,14.45-.47,21.68C278.74,24,278.22,27.41,279.5,29.48Z"/>
      <path class="cls-2" d="M120.55,180c4.39,5.28,7.2,11.63,10,17.84a.3.3,0,0,0,0-.08c4.18-9.71,6.3-20.1,9.24-30.22-6.91.63-13.57,8.5-18.92,12.18Z"/>
      <path class="cls-2" d="M138.94,180.23c-1.07,4-2.18,8-3.54,11.92.74.11,1.43.35,2.16.53a27.16,27.16,0,0,0,.43-3.78c0-.19,0-.37,0-.57a1.06,1.06,0,0,1,2.09-.1,9.46,9.46,0,0,1,0,1.17,7.58,7.58,0,0,0,4.25,6.86,29.55,29.55,0,0,0,2.26-6.19c.2-1,1.9-1.34,2-.1.52,6.41,2.24,14.07,6,19.36,2.32,3.23,7.35,6.37,10.46,1.78,2.25-3.32,2.19-7.89,1.74-11.72-.76-6.44-2.13-15.53-7-20.34a17,17,0,0,0-11-5c-4.9-.13-7.47,2.05-9.81,6.07A.43.43,0,0,1,138.94,180.23Z"/>
      <path class="cls-2" d="M75.41,257.19c-8.51,1.56-16.54-2.34-22.06-8.54a.89.89,0,0,0-.7-.83A29.71,29.71,0,0,1,47.23,238C45.58,232.81,46,216.49,53,214.45c1,7,9.55,10.13,15.33,12.38a.88.88,0,0,0,1.08-1.07,51.63,51.63,0,0,1-1.32-5.32A70.71,70.71,0,0,0,85,226.2c.69.15,1.55-.64,1-1.34a25.37,25.37,0,0,1-2.22-4.14,27.91,27.91,0,0,0,10.11.11C101.58,235,92.27,254.1,75.41,257.19Zm-4.48-17.38a16.41,16.41,0,0,1,2.63,1.45c.29.2.7.59.74.84h0a1.84,1.84,0,0,1-.55.21c-.66.18-1.26.08-1.71.7a.56.56,0,0,0,0,.6c1,1.31,3.72.22,3.91-1.31.25-2-3.2-3.12-4.58-3.53C70.77,238.6,70.35,239.53,70.93,239.81Zm-9.56-6.32a10.59,10.59,0,0,1,.29-1.86,1.15,1.15,0,0,0-1.11-1.45,2.41,2.41,0,0,0-2.17,1.9,3.71,3.71,0,0,0-.23-.32c-.17-.36-.34-.72-.53-1.06-.72-1.37-2.58-.3-2.21,1a1.3,1.3,0,0,0,.11.85,20.6,20.6,0,0,0,2.06,3.47,11.15,11.15,0,0,0,.71.86c1.16,1.23,3-.62,1.86-1.86-.08-.08-.13-.17-.2-.25a2.17,2.17,0,0,1,.07-.24A1.1,1.1,0,0,0,61.37,233.49Zm23.4,10c-6.21,7.6-15.17,9.59-22.56,2.13-.42-.43-1,.2-.65.64,6.93,8.21,18.51,7.13,24.21-2C86.14,243.71,85.23,243,84.77,243.54ZM88.36,232a1.15,1.15,0,0,0-2-.81,14.23,14.23,0,0,0-2,2.64l-.29-.22-.64-.84a1.32,1.32,0,0,0-1-.5l-.14-.15a.75.75,0,0,0-1.28.45,1.14,1.14,0,0,0,0,1.53c.26.28.49.58.74.88.49,1.26,1.36,2.58,2.4,2.76a1.35,1.35,0,0,0,1.33-.65,1,1,0,0,0,1.09-.3A7.39,7.39,0,0,0,88.36,232Z"/>
      <path class="cls-2" d="M111.63,181.89a25.41,25.41,0,0,0,6.1-2.81.79.79,0,0,1,1.3-.84c3.41-2.28,6.55-5.08,9.81-7.48,2.8-2.06,5.85-4.35,9.27-5.22-16.07-7.38-34.4-7.94-51.54-11.71C90.05,164.68,97.75,186,111.63,181.89Z"/>
      <path class="cls-2" d="M119.15,180.92c-4,2.53-8.63,4.62-13.41,3.39-5.42-1.39-9.52-5.18-12.73-9.93v0h0a.82.82,0,0,1-.12.2,2.68,2.68,0,0,1-.18.28c0,.22.09.43.14.65s-.3.58-.49.3c-.06-.09-.14-.18-.21-.27-1.64,1.72-4.5,3-6.32,4.09s-3.51,2.07-5.2,3.2a15.42,15.42,0,0,1-2.35,1.47,16.19,16.19,0,0,0,5.06,3,114.68,114.68,0,0,0,14.47,5.36c5.71,1.71,11.47,3.2,17.24,4.69,2.82.73,5.65,1.46,8.46,2.25s4.29,1.64,5.68.41a.82.82,0,0,1-.15-.24C126.08,193.37,123.45,186.59,119.15,180.92Z"/>
      <path class="cls-2" d="M83.54,178.36c1.73-1,3.48-2,5.23-3,1.11-.63,2.24-1.58,3.52-1.77a1,1,0,0,1,.17,0c-3.57-5.59-6-12.36-7.86-18.16-1.79,5.29-3.69,10.62-5.3,16a.91.91,0,0,1-.08,1.11c-.12.15-.25.27-.37.41-.64,2.24-1.24,4.49-1.74,6.75a5.32,5.32,0,0,0,.08,2.94C78.61,180.71,81.71,179.44,83.54,178.36Z"/>
      <path class="cls-2" d="M75.78,86.38c-2.4-8.75-5.45-18-11.16-24.93a.94.94,0,0,1-.13-.24,1.56,1.56,0,0,1-.22.23,1.2,1.2,0,0,1-.55.25c.4,8.39.75,17.43,2.19,26.15C69.33,89.18,73.14,89.24,75.78,86.38Z"/>
      <path class="cls-2" d="M91.8,37a9.9,9.9,0,0,0,3.77,2.16,26.73,26.73,0,0,0,1.2-5.24,31.63,31.63,0,0,0-3-1.73C92.85,33.09,90.63,35.94,91.8,37Z"/>
      <path class="cls-2" d="M76.31,88.32c-2.88,2.46-6.73,2.34-10.16.91,2.06,11.56,6.16,22.47,15,30.5.42-9.75-1.77-19.84-4.24-29.17C76.71,89.82,76.51,89.08,76.31,88.32Z"/>
      <path class="cls-2" d="M80.21,96.84c6.5-3.56,1-14.91-1.43-19.58-2.71-5.2-6.58-12.17-11.91-15.72,5.92,7.67,8.93,18.13,11.34,27.26C78.9,91.43,79.59,94.12,80.21,96.84Z"/>
      <path class="cls-2" d="M141.13,121.88a30.58,30.58,0,0,0-.44-6.7,15.68,15.68,0,0,0-2.57.29,1.09,1.09,0,0,1,0,.18,18.29,18.29,0,0,0-.43,6.14A12.13,12.13,0,0,0,141.13,121.88Z"/>
      <path class="cls-2" d="M208.16,254.88c-13.32-2.85-26.66-5.57-40.29-6.33a122.21,122.21,0,0,0-19.6.58,3.23,3.23,0,0,1-3.51-2.3,1.22,1.22,0,0,0-.42-1.2c-.4-1.42-.59-3-.87-4.29-.79-3.64-1.41-7.3-2.41-10.89,17.63-1.11,35.21-1.94,52.87-2.36,3.57-.08,7.11-.81,10.67-.19,4.41.77,5.52,5.86,5.68,9.56C210.53,243.28,209.27,249.18,208.16,254.88Zm-4.29-22.17a1,1,0,0,0-.71-.75,13.8,13.8,0,0,0-3.26-.47,4.31,4.31,0,0,0-2.9.57.79.79,0,0,0,0,1.19,7.5,7.5,0,0,0-1.37,5.08,4.37,4.37,0,0,0,2.81,3.69,3.9,3.9,0,0,0,4.31-1.49C204.42,238.45,204.22,235.17,203.87,232.71Z"/>
      <path class="cls-2" d="M199.49,233.52c-.42,0-.87.08-1.31.09a6.72,6.72,0,0,0-.93,4.34,2.91,2.91,0,0,0,1.76,2.22,1.93,1.93,0,0,0,2.24-1.07,8.71,8.71,0,0,0,.68-5.32A10.54,10.54,0,0,0,199.49,233.52Z"/>
      <path class="cls-2" d="M180.45,300H170.26a21.48,21.48,0,0,0-2.09-8.46c-3.65-8.38-9.84-18.63-19.33-21-5.73-1.42-14.37.64-16.79,6.23-.29-3-.57-6-.75-9a1.22,1.22,0,0,0-1.18-1.18c-19.41-2.52-38.46,4.25-57.55,6.59a.76.76,0,0,0-1.16.37,1,1,0,0,0-.32,1.49l.23.3c-.15,6.56.14,13.07.37,19.61-1.92,4.49-5.31,3-6.83-.58-.11-.31-.22-.62-.33-.9-.54-1.28-2.58-.82-2.15.59a19.64,19.64,0,0,0,.75,2.07,6.74,6.74,0,0,1,.15,3.85H59.8a15.66,15.66,0,0,1-1.24-4.21,1.11,1.11,0,0,0-2.21,0c0,1.06.1,2.54.17,4.21H45.3c0-1.08.08-2,.15-2.62.75-6.73,2.9-16.54,9-20.45S65,284.17,70,285c.45.07.93-.37.64-.83-3.34-5.25-11.57-13-18-8.8C45.46,280,43.47,292.25,43,300H35.05c-.44-1.69-.86-3.4-1.22-5.11a169.09,169.09,0,0,1-3.6-33.57,1.13,1.13,0,0,0-.09-.43c3.1-.5,6-2,5.42-5.68s-5.33-5.44-8.3-6.41C18.81,246,9.19,245.63,0,246.35V235.83c1.42-.47,2.76-1,3.87-1.39a85.64,85.64,0,0,0,11-4.89c.38.26.76.53,1.16.78,1.22.78,2.31-1.13,1.12-1.92l-.09-.06c.69-.38,1.37-.77,2-1.17a1.17,1.17,0,0,0,.54-1.33c-2.14-5.12-3.29-10.65-5.17-15.87-1.15-3.2-3-8.63-6.64-9.82-2.37-.77-5.2.11-7.79,1.23V194c2.85.36,5.7.72,8.56,1,3.94.33,15.9,1.85,18-3.45.89-2.26.57-4.91.51-7.29a66.35,66.35,0,0,1,1-10.71c.55-4.14,3.38-14.95-1.43-17.73-5.92-3.42-14-1.57-20.5-1.64-2,0-4.07-.17-6.12-.36v-6.88a63.23,63.23,0,0,0,6.93,3.48c.56.24,1.45-.17,1.17-.9-1.48-3.92-2-7.73.18-11.38a27.74,27.74,0,0,0,12.9,2.75A23.57,23.57,0,0,0,33.1,137c3.13,4.28,4.61,9.15,3.47,14.52-.15.69.79,1.45,1.32.77,3.71-4.76,7.4-9.2,9-14.89.54,1.29,1.11,2.56,1.63,3.89a.86.86,0,0,0,1.56.2c6.58-10.64,9.93-22.36,5.84-33.4l0,0a.83.83,0,0,0,1.51-.19C61.07,89.85,31,76.28,17.6,86.36c-.8.61-.06,2,.8,1.38,11.76-8.12,38.73,1.91,37.71,17.81-1.53-2-3.26-3.79-4.85-5.76-.6-.75-1.9.26-1.33,1,9.29,12.3,6.73,25.94-.46,38.34a48.91,48.91,0,0,1-2-5,.85.85,0,0,0-1.66.22c-.76,5.87-4,10.2-7.44,14.66a18.36,18.36,0,0,0-4.44-12.6,31.59,31.59,0,0,0,7.77-7.83.31.31,0,0,0,.09.11,5.43,5.43,0,0,0,7.61-1.25,6.17,6.17,0,0,0-1.47-8.36c-.86-.69-2.07.53-1.21,1.21a4.65,4.65,0,0,1,1.51,6.08c-1.29,2.44-3.86,2.39-6.12,1.62,7.82-11.72,8.27-28.23-6.22-35.28-1.31-.64-2.46,1.32-1.14,2,6.57,3.19,9.75,8.32,10.45,14a.69.69,0,0,0-.89-.21C32.3,115.77,13.56,118.2,0,112V97.43a28.41,28.41,0,0,1,4.41-3.68.81.81,0,0,0-.82-1.4A24.74,24.74,0,0,0,0,94.59v-10c5.32-.88,10.75,1.15,15.89,2.16.42.08.75-.53.31-.73A30.73,30.73,0,0,0,0,83.15v-9c12-2.65,24.35-4,36.74-5,.63,0,1.34-.53,1.26-1.26-.23-2.16-.47-5.31-.92-8.74a.88.88,0,0,0,.56,0c.94-.31,1.76-.11,2.64-.74a3.07,3.07,0,0,0,1.09-1.61,42.42,42.42,0,0,0,4.45,2.41,1.14,1.14,0,0,0,1.69-1c0-.31.05-.61.07-.9,1.76,2.53,4.15,4.85,7.05,4.36,3.46-.58,3.74-4.52,3-7.26-1.46-5.24-6.7-9.25-11.73-10.67-4.79-1.36-8.31,2.26-10.75,5.92-2-6.45-5.65-11.52-12.53-10-4.39,1-8.54,3-12.8,4.38L0,47.32v-10c5.49.09,11-.35,16.5-.75,6.9-.5,15.38.6,21.27-3.73,4.63-3.4,2.9-10.56,1.92-15.27C38.46,11.6,36.58,5.85,35.05,0H43c0,.05,0,.11,0,.17C42.6,6,44.11,17.85,52.12,16.9c5.52-.66,6.53-7.74,6.6-13.87A3.4,3.4,0,0,0,62,4a4.36,4.36,0,0,0,3.57-4h.82A3.63,3.63,0,0,0,68,.32,6.12,6.12,0,0,0,69.64,0h2.21c0,.07,0,.14,0,.21.09,3.58.47,7.58,4.37,9,7.23,2.57,16.27,1.58,23.76,1.14,10.51-.63,21-2.12,31.46-2.64a1.22,1.22,0,0,0,1.19-.9A67.53,67.53,0,0,0,133.27,0H150c3.15,3.88,7,7.1,11.32,8,3.38.7,6.51-1.54,8.08-4.38A7.7,7.7,0,0,0,170.26,0h10.19a23,23,0,0,0,3.79,11c.32.46,1.25.52,1.34-.17a12.45,12.45,0,0,1,1.21-3.65c.45,11,6,20.36,18.09,21.49a.71.71,0,0,0,.49-1.2,13.45,13.45,0,0,1-4.41-6.9,26.38,26.38,0,0,0,14.95,6.91,26.1,26.1,0,0,0,19.62-6.28,39.51,39.51,0,0,0,4,10.5.78.78,0,0,0,.9.36C251.64,27.84,253,12.65,251.06,0h26c-.4,9.07-1.38,18.44-.5,27.43.5,5,4.67,6.75,9,8A57.14,57.14,0,0,0,300,37.27v10L292.23,50c-10.74,3.72-21.55,7.6-31.71,12.74-.74.37-.22,1.64.57,1.34l.57-.21s0,.09.07.14c.81,1.26,1.56,2.56,2.29,3.87a17.67,17.67,0,0,0-7-2.39,1,1,0,0,0-1,.54c-4.32,8-9.18,18.75-4.07,27.34,1.26,2.12,3.51,2.71,5.14.75,1.81-2.17,2.32-5.67,2.4-8.87.58.66,1.21,1.31,1.81,2.08a1.14,1.14,0,0,0,1.62,0c2-2.19,3.16-4.29,3.26-6.81,1.46.8,2.72.18,4.43-1.13.67,1,1.37,2,2.14,2.91a1.33,1.33,0,0,0,1.59.2A127.5,127.5,0,0,1,300,74.14v9a19.78,19.78,0,0,0-3.08.63c-6.46,1.9-9.45,8.42-11,14.4a.78.78,0,0,0,.95.95,19,19,0,0,1,2.47-.62c-6.45,9.18-13.44,22.6-5.18,32.38a.73.73,0,0,0,.86.11c1.24-.71,2.54-1.27,3.81-1.89-2,7.82,4.36,13.8,11.17,17.82v6.88c-2.35-.2-4.69-.46-7-.67-4.64-.41-9.87-.71-14.18-2.69-1.33-.61-2.49,1.27-1.16,2,5.25,2.89,12.31,2.93,18.14,3.43,1.41.12,2.81.22,4.21.3v5.37a.78.78,0,0,0-.65.4c-1.6,3-1.34,7.06-1.29,10.4a129.82,129.82,0,0,1-.12,13.81c-.09,1,1.48,1.17,1.69.23.14-.66.26-1.33.37-2v7.53c-4.75-.56-9.49-1.19-14.24-1.37-3.27-.12-6.76-.18-9.33-2.48-3.12-2.79-2.85-7.88-2.74-11.66.23-7.89,1.91-15.88,3.79-23.52a.56.56,0,0,0-1.07-.3c-2.39,8.18-4.4,16.57-4.9,25.1-.35,6.09,1.27,12.39,7.62,14.4,3.3,1,7.13.77,10.54.93s6.89.58,10.33,1v7.36c-1.5.66-2.93,1.4-4.14,2-5.23,2.42-10.2,5.39-15.23,8.2a1.13,1.13,0,0,0-1.2,1.42A111.19,111.19,0,0,0,284,227c1.42,3.43,3.4,8.07,7.12,9.54,2.53,1,5.89.25,8.87-.72v10.52c-3.4.26-6.73.67-9.93,1.18-4.84.77-20,3.63-16,11.78a1.14,1.14,0,0,0,1.89.06.81.81,0,0,0,.57.13c.58-.09,1.19-.14,1.78-.21,0,0,0,.06,0,.1q-.58,18.93-1.14,37.86c0,.91-.07,1.83-.11,2.75h-26a59.78,59.78,0,0,0-2.89-11.41c2.38.81,4.81,1.36,7,2.71a.76.76,0,0,0,1.14-.65c-.64-7.72-4.28-14.12-11.78-16.94a50,50,0,0,0-12.33-2.61c-2.12-.23-4.24-.38-6.35-.54-2.28-.18-6.57.47-4.94-2.84a.81.81,0,0,0-.69-1.2c-7.11-.64-15-.77-21,3.56a.67.67,0,0,0-.28.68c-6.25-2.11-12.25-.54-15.37,5.51-.29.55.18,1.35.85,1.11a15.48,15.48,0,0,1,6.43-1C183.43,281.32,179.66,291,180.45,300ZM293.66,181.54c-1.27-.07-1.7-.6-2.8-1.24a1.9,1.9,0,0,0-1.58-.09,1.67,1.67,0,0,0-1,.83,12.77,12.77,0,0,0-1.12-1.88.81.81,0,0,0-1.27.17,24.08,24.08,0,0,1-1.69,2.79c-.65-1.38-1.41-2.68-2.17-4a.68.68,0,0,0-1.17,0,12.41,12.41,0,0,0-1.24,4.2c-.05.6,1,.74,1.06.14a9,9,0,0,1,.78-2.49,32,32,0,0,1,1.82,3.83.77.77,0,0,0,1.28.34,16.18,16.18,0,0,0,2.05-2.81,15,15,0,0,0,1.19,2.05.84.84,0,0,0,1.54-.42c.21-1.74,1.08-.26,1.82.1a4.68,4.68,0,0,0,2.7,0C294.76,182.9,294.48,181.58,293.66,181.54ZM279.15,165a.37.37,0,0,0,.74,0c0-1.13-.21-2.29-.15-3.42l1.78,3.75a.66.66,0,0,0,1.13,0c.63-1.06,1.38-2,2-3a8.54,8.54,0,0,1,1.92,3.52.64.64,0,0,0,.94.38,7.16,7.16,0,0,0,2.88-2.84c.73,1.32,1.54,1.53,3.42,1,.89-.23.5-1.53-.38-1.37-1.24.23-1.24,1.57-2.38-1.42a.67.67,0,0,0-1.29,0,6.86,6.86,0,0,1-2.22,3c-.55-1.37-1.68-2.47-2.38-3.78a.63.63,0,0,0-1.08,0c-.62,1-1.33,1.9-2,2.87-.72-1.38-1.43-2.75-2.16-4.11a.54.54,0,0,0-1,.13C278.49,161.42,279,163.17,279.15,165Zm-1.53,5.62c-.44,1.29-.67,2.61-1.14,3.89-.18.51.66.87.88.37.29-.68.52-1.38.76-2.07a11.67,11.67,0,0,1,.68,2.48.73.73,0,0,0,1.34.36,39.8,39.8,0,0,1,2.7-3.23,16.51,16.51,0,0,1,1.23,1.92.69.69,0,0,0,.93.24c1-.63,1.79-1.47,2.73-2.18,1.51,1.84,2.62,1.16,4.91.13a.53.53,0,0,0-.13-1c-1.64-.29-2.64,1.55-4-.49a.7.7,0,0,0-1-.25c-1,.64-1.77,1.5-2.69,2.21a6.89,6.89,0,0,0-1.76-2.19.69.69,0,0,0-.93.24,23.16,23.16,0,0,1-2.29,2.65,17.93,17.93,0,0,1-1-3.11C278.73,169.9,277.81,170,277.62,170.57Zm-11.2,114.6c-.09-.11-.34-.47-.54-.77,0,0,0,0,0-.08a2.82,2.82,0,0,0-1-1.58c-.22-.41-.41-.84-.62-1.25a1.91,1.91,0,0,0-.3-.52h0c.54-7.6-.57-15.43-2.23-23a.6.6,0,0,0,.23,0c7.39-1.71,3-13.89,1.27-18-3.23-7.51-9.2-19-18-21.13a.43.43,0,0,0-.52.55l-.08,0a1.77,1.77,0,0,0-.5.84.5.5,0,0,0-.14.32c-.92,20.66,1.49,47.09,18.52,61.26a1,1,0,0,0,.26.16,10.46,10.46,0,0,0,.41,1.19,1,1,0,0,0,.07.15,2.56,2.56,0,0,0,.59,1.66,8.87,8.87,0,0,0,1.23,1.62C265.85,287.57,267.27,286.14,266.42,285.17Zm.54-84.49c-1-4.71-2.63-9.24-3.62-14A105.19,105.19,0,0,1,261.12,166a.71.71,0,0,0-.05-.26c1.91-.31,3.67-1.23,3.34-3.5s-3.29-3.36-5.12-4c-7.13-2.34-15.63-1.94-22.94-.78-3,.47-12.36,2.24-9.86,7.26a.7.7,0,0,0,1.16,0,.54.54,0,0,0,.36.08l1.1-.13s0,0,0,.06q-.36,11.69-.7,23.36c-.18,6.12-1,12.51-.37,18.62.3,3.1,2.88,4.16,5.57,4.91,6.23,1.72,12.71,1.15,19.06.7,4.26-.31,9.49.36,13.13-2.31C268.63,208,267.57,203.59,267,200.68ZM245.28,125.5c-2-6.46-5.64-11.52-12.53-10-4.38,1-8.54,3-12.79,4.38-5.87,2-11.73,3.91-17.57,5.93-10.75,3.72-21.55,7.6-31.71,12.74-.74.37-.22,1.65.57,1.35l.57-.22a.61.61,0,0,0,.07.14c.81,1.27,1.56,2.56,2.29,3.87a17.82,17.82,0,0,0-7-2.39,1.09,1.09,0,0,0-.95.54c-4.31,8-9.18,18.75-4.06,27.35,1.25,2.11,3.5,2.71,5.13.75,1.81-2.17,2.33-5.67,2.4-8.87.59.65,1.21,1.31,1.81,2.07a1.15,1.15,0,0,0,1.63,0c2-2.18,3.16-4.29,3.25-6.81,1.47.8,2.73.19,4.43-1.13.68,1,1.38,2,2.15,2.91a1.34,1.34,0,0,0,1.59.21c19.74-9,40.94-11.51,62.33-13.37.62-.06,1.34-.54,1.26-1.26-.24-2.16-.47-5.32-.93-8.75a.82.82,0,0,0,.56,0c.94-.3,1.77-.1,2.64-.74a3,3,0,0,0,1.1-1.61A38.82,38.82,0,0,0,256,135a1.14,1.14,0,0,0,1.7-1c0-.3,0-.6.07-.9,1.75,2.53,4.15,4.86,7.05,4.37,3.45-.59,3.74-4.53,3-7.27C266.3,125,261.07,121,256,119.57,251.25,118.22,247.73,121.83,245.28,125.5Zm-29.49,74.95c.69-.38,1.38-.78,2.05-1.17a1.18,1.18,0,0,0,.54-1.34c-2.14-5.12-3.29-10.64-5.17-15.86-1.15-3.2-3-8.63-6.63-9.82s-8.64,1.67-11.93,3.19c-5.24,2.42-10.21,5.39-15.24,8.2a1.12,1.12,0,0,0-1.2,1.41,109.79,109.79,0,0,0,4.59,14.05c1.41,3.43,3.4,8.06,7.11,9.54s9.3-.87,12.74-2.11a85.64,85.64,0,0,0,10.95-4.89c.38.26.76.53,1.16.78,1.22.77,2.31-1.14,1.12-1.92ZM217,100.24a.88.88,0,0,0,.07.29,11.87,11.87,0,0,0-.58,1.12l-.06.16a2.55,2.55,0,0,0-.79,1.58,8.52,8.52,0,0,0-.32,2c-.13,1.29,1.89,1.33,2,0,0-.15.1-.57.18-.93l.05-.06a2.78,2.78,0,0,0,.43-1.84c.15-.44.32-.87.47-1.31a1.75,1.75,0,0,0,.17-.58h0c5.88-4.86,10.76-11.07,15.1-17.51a.52.52,0,0,0,.17.16C240.23,87.52,246,76,247.8,71.83c3.2-7.52,7.42-19.81,2.83-27.63a.43.43,0,0,0-.76,0s-.06,0-.1,0a1.75,1.75,0,0,0-1,.22.49.49,0,0,0-.32.12C232.92,58.13,215.48,78.13,217,100.24Zm-22.84-49.3c6.94-4.84,14.67-8.48,22.33-12,2-.92,4.51-3.11,6.18-.87a66,66,0,0,1,3.59,5.62c2.13,3.6,4.08,7.29,6.32,10.82-10.26,6-20.31,12.8-31.55,16.87-1.13-3.32-2.57-6.54-3.89-9.79-1.16-2.88-3-6.69-2.6-9.89,0-.35-.45-.42-.62-.17-1.58,2.4.19,6.27,1,8.65,1.41,4.27,3.34,8.35,4.69,12.63a.93.93,0,0,0,1.14.65c12-4.15,22.68-11.46,33.61-17.84a.92.92,0,0,0,.33-1.26c-4.19-6.42-7.37-13.45-12.15-19.49a.93.93,0,0,0-1.11-.14c-9.63,4.29-19.51,8.52-28.18,14.6C192.24,50,193.17,51.63,194.16,50.94Zm19.54,7.71c-2.85,1.57-5.47,3.5-8.19,5.26-.38.25,0,.86.36.62,2.3-1.4,4.64-2.73,7-4s5-1.84,7.2-3.1c.39-.22.37-1-.13-1C217.84,56.06,215.44,57.68,213.7,58.65ZM215.42,45l.25-.13a6.45,6.45,0,0,0,.59,2.13c.27.61,1,2.09,1.76,2.29,1.74.48,4.23-1.16,5.43-2.25a.79.79,0,0,0,.12-.93,21.56,21.56,0,0,0-3.77-4.33.8.8,0,0,0-.75-.2c-1.45.51-3.67,1.15-4.56,2.49C214.09,44.67,214.86,45.25,215.42,45Zm-1.91,9.92C212.3,55,211,56.1,210,56.69c-1.83,1.05-3.64,2.14-5.52,3.11-.33.17,0,.65.29.49,1.64-.82,3.25-1.72,4.87-2.58a21.08,21.08,0,0,1,4-1.93A.45.45,0,0,0,213.51,54.9Zm-3.76-2.57c-1.66.33-3.39,2-4.78,2.87s-3.31,1.75-4.2,3.15c-.15.23.13.46.35.35,1.76-.84,3.42-1.86,5.09-2.87,1.1-.68,3.62-1.62,4.06-3A.43.43,0,0,0,209.75,52.33ZM180.14,94.09c-5.23,2.42-10.21,5.39-15.24,8.2a1.12,1.12,0,0,0-1.19,1.42,109.6,109.6,0,0,0,4.58,14c1.41,3.43,3.4,8.07,7.11,9.54s9.3-.86,12.75-2.11a85.51,85.51,0,0,0,10.94-4.89c.39.26.77.54,1.16.79,1.22.77,2.32-1.14,1.13-1.92l-.09-.06,2.05-1.18a1.17,1.17,0,0,0,.54-1.33c-2.15-5.12-3.29-10.65-5.17-15.87-1.16-3.19-3-8.63-6.64-9.82S183.43,92.57,180.14,94.09ZM118.33,43.27c-6.45,9.19-13.44,22.6-5.18,32.38a.71.71,0,0,0,.86.11c1.24-.71,2.54-1.27,3.81-1.89-2.71,10.55,9.8,17.74,18.09,21.3.57.24,1.46-.16,1.18-.9-1.48-3.92-2-7.72.17-11.37a27.91,27.91,0,0,0,12.9,2.74,23.6,23.6,0,0,0,11.93-3.88c3.13,4.27,4.6,9.15,3.46,14.51-.15.7.8,1.45,1.33.77,3.71-4.76,7.39-9.19,9-14.89.53,1.29,1.11,2.56,1.62,3.89a.87.87,0,0,0,1.57.21c6.58-10.64,9.93-22.36,5.84-33.41l0,.06a.83.83,0,0,0,1.51-.2C190.06,34.61,160,21,146.58,31.13c-.8.6-.05,2,.81,1.37,11.76-8.11,38.73,1.92,37.71,17.82-1.54-2-3.26-3.8-4.85-5.77-.6-.75-1.91.26-1.33,1,9.28,12.3,6.73,25.95-.47,38.35a52.55,52.55,0,0,1-2-5,.84.84,0,0,0-1.65.23c-.77,5.87-4,10.19-7.44,14.65a18.39,18.39,0,0,0-4.45-12.6,31.38,31.38,0,0,0,7.77-7.82.47.47,0,0,0,.1.1,5.43,5.43,0,0,0,7.61-1.24,6.16,6.16,0,0,0-1.48-8.36c-.85-.69-2.07.53-1.21,1.2a4.65,4.65,0,0,1,1.51,6.09c-1.28,2.43-3.86,2.39-6.12,1.61,7.83-11.72,8.28-28.23-6.21-35.28-1.31-.64-2.46,1.32-1.14,2,6.57,3.19,9.74,8.32,10.45,14a.7.7,0,0,0-.9-.2c-13.94,8.49-37,10.41-50.39-.18,1.29-5.71,5-10.81,10.48-14.53a.8.8,0,0,0-.81-1.39C123,42,119,51.81,120.75,61.68a.5.5,0,0,0-.56-.33,6,6,0,0,0-2.35.52,5.52,5.52,0,0,0-1.66,1.57,4.91,4.91,0,0,0-.58,4.12c1,3.6,5.25,4.2,8.29,3.12,0,0,.06,0,.09-.05a30.25,30.25,0,0,0,11.83,11.52c-2.05,3.48-2,7.13-.84,10.87-8.13-3.67-19-10.31-15.32-20.36.22-.59-.52-1.06-1-.78-3.77,2.12-5.89,2.25-7.3-2.49-1.09-3.64-.17-7.68.9-11.2C114,52.4,117.41,47,121,42.2c.49-.66-.43-1.38-1-1.05a11.23,11.23,0,0,1-3.17.9c1.66-5.58,4.52-10.52,10.48-12.28s11.93.64,17.64,1.76c.42.09.74-.53.31-.73-5.77-2.67-13.09-4.08-19.29-2.26-6.45,1.9-9.44,8.43-11,14.4a.77.77,0,0,0,1,1A22.87,22.87,0,0,1,118.33,43.27Zm30.49,83.4c.55-4.15,3.38-15-1.43-17.73-5.92-3.42-14-1.58-20.5-1.65-4.36-.05-8.79-.64-13.13-1-4.64-.41-9.87-.7-14.18-2.68-1.33-.61-2.49,1.26-1.16,2,5.25,2.9,12.31,2.93,18.14,3.44a162.36,162.36,0,0,0,19,.51c3.27-.1,6.87-.2,9.94,1.11,2.89,1.23,1.87,6.57,1.71,9-.41,6-1.9,11.75-1.75,17.72,0,2,.69,5.28-.67,6.94-1.79,2.17-7.95,1.57-10.37,1.62-9.29.2-18.58-1.92-27.86-2.27-3.27-.12-6.76-.18-9.33-2.48-3.12-2.78-2.85-7.88-2.74-11.66.23-7.89,1.91-15.87,3.79-23.52a.56.56,0,0,0-1.07-.3c-2.39,8.18-4.4,16.57-4.9,25.1-.35,6.09,1.26,12.39,7.62,14.4,3.3,1,7.13.77,10.54.94,6.32.3,12.59,1.44,18.89,2,3.94.33,15.9,1.85,18-3.44.89-2.27.57-4.92.51-7.29A66.35,66.35,0,0,1,148.82,126.67Zm-34.58-10.56c-1.24.22-1.24,1.56-2.38-1.43a.68.68,0,0,0-1.29,0,6.86,6.86,0,0,1-2.22,3c-.55-1.37-1.68-2.47-2.39-3.78a.63.63,0,0,0-1.07,0c-.62,1-1.34,1.9-2,2.87-.72-1.37-1.43-2.75-2.16-4.11a.54.54,0,0,0-1,.13c-.51,1.75,0,3.5.15,5.28a.37.37,0,0,0,.73,0c0-1.13-.2-2.29-.14-3.42l1.78,3.75a.66.66,0,0,0,1.13,0c.63-1.05,1.38-2,2-3a8.64,8.64,0,0,1,1.92,3.53.65.65,0,0,0,.94.38,7.25,7.25,0,0,0,2.88-2.85c.73,1.32,1.54,1.53,3.41,1C115.51,117.24,115.12,115.94,114.24,116.11Zm.19,18.55c-1.27-.07-1.7-.59-2.8-1.24a1.9,1.9,0,0,0-1.58-.09,1.74,1.74,0,0,0-1,.83,13.31,13.31,0,0,0-1.12-1.88.81.81,0,0,0-1.27.17,24.08,24.08,0,0,1-1.69,2.79c-.65-1.37-1.41-2.68-2.17-4a.68.68,0,0,0-1.17,0,12.41,12.41,0,0,0-1.24,4.2c0,.6,1,.74,1.06.14a9.49,9.49,0,0,1,.77-2.49,31.42,31.42,0,0,1,1.83,3.84.77.77,0,0,0,1.28.33,16.49,16.49,0,0,0,2-2.8,14.87,14.87,0,0,0,1.19,2,.83.83,0,0,0,1.54-.42c.21-1.73,1.07-.26,1.81.1a4.72,4.72,0,0,0,2.71,0C115.53,136,115.25,134.7,114.43,134.66Zm-16-11c-.44,1.29-.67,2.62-1.14,3.9-.18.51.66.87.88.37.29-.68.52-1.38.76-2.08a11.67,11.67,0,0,1,.68,2.48.72.72,0,0,0,1.33.36c.77-1.2,1.84-2.12,2.71-3.23a16.51,16.51,0,0,1,1.23,1.92.69.69,0,0,0,.93.25c1-.63,1.79-1.48,2.73-2.18,1.51,1.83,2.62,1.16,4.91.12a.53.53,0,0,0-.13-1c-1.64-.29-2.64,1.56-4-.49a.71.71,0,0,0-1-.25c-1,.64-1.77,1.5-2.69,2.21a6.89,6.89,0,0,0-1.76-2.19.69.69,0,0,0-.93.25,22.2,22.2,0,0,1-2.3,2.64,18.49,18.49,0,0,1-1-3.11C99.5,123,98.58,123.16,98.39,123.69Zm20.32,15.6c-.09,1,1.48,1.16,1.69.22,1.67-7.65.77-16.2,1.3-24a.85.85,0,0,0-1.58-.43c-1.6,3.05-1.34,7.06-1.29,10.4A130,130,0,0,1,118.71,139.29Zm18.21-23.57c-.64,2.24-.54,4.56-.82,6.85-.06.47.42.8.82.83,1.79.09,3.65.7,5.39.07a1,1,0,0,0,.68-.9,28.59,28.59,0,0,0-.66-8.61,1,1,0,0,0-.91-.69c-1.63,0-3.51-.1-4.94.83A.88.88,0,0,0,136.92,115.72Zm-11.57,15.21a.64.64,0,0,0,0,1.28c4.28.24,8.58,1,12.86,1a1,1,0,0,0,0-1.91C133.94,131.09,129.62,130.78,125.35,130.93Zm-.73,6.11a.33.33,0,0,0,0,.63,33.22,33.22,0,0,0,6.58.56c1.5,0,6,1,7-.53a.66.66,0,0,0,0-.69c-1-1.47-5.46-.56-7-.53A34.79,34.79,0,0,0,124.62,137ZM94.86,59a1.2,1.2,0,0,0,1.57-.57c3.68-9.08,8.73-17.55,11.59-27a1.18,1.18,0,0,0-.66-1.27c-11.52-7-23.16-14.27-35.86-18.94-1.43-.52-2.45,1.63-1,2.16,10.13,3.77,19.58,9.22,28.87,14.69,2.42,1.43,6.55,2.47,5.41,5.86a84.1,84.1,0,0,1-3.28,7.86c-2.23,4.86-4.67,9.6-6.75,14.52C81,50,66.52,44.36,54.06,35.53c2.66-3.61,5-7.47,7.43-11.22,2.18-3.32,4.83-8,8.49-9.94.4-.21.1-.78-.27-.77-3.68.09-6.45,4.77-8.38,7.32-3.45,4.59-6.33,9.59-9.84,14.13a1.18,1.18,0,0,0,.15,1.66C64.77,46.33,80.2,52.16,94.86,59ZM65.15,34.78c-.53-.22-.92.59-.38.83C67.91,37,71,38.49,74.1,40s5.55,3.87,8.49,5.3c.52.25,1.28-.31,1-.89-1.2-2.42-4.65-3.75-6.93-4.88C72.92,37.7,69,36.35,65.15,34.78Zm3.28-3.39c2.06,1.13,4.17,2.16,6.26,3.23a26.32,26.32,0,0,1,4.92,2.76c.48.41,1.24-.25.83-.76-1-1.22-3.06-1.72-4.41-2.37-2.44-1.16-4.91-2.26-7.29-3.52C68.32,30.51,68,31.16,68.43,31.39Zm12-.59c-1.55-1.5-4.55-2.13-6.5-2.93s-4.25-2.2-6.36-2.12a.33.33,0,0,0-.12.63c2.17,1.23,4.45,2.23,6.73,3.24,1.51.67,4.33,2.63,6.08,2.1A.55.55,0,0,0,80.4,30.8Zm12.16.76a8.2,8.2,0,0,0-1.8,2.16c-.44.74-1.44,2.6-1.12,3.52.77,2.18,4.3,3.59,6.32,4A1,1,0,0,0,97,40.75a26.69,26.69,0,0,0,1.8-7.12,1,1,0,0,0-.33-.92c-1.59-1.15-3.88-3-5.93-3-1,0-1,1.26-.3,1.66ZM63.49,59.64l-.09,0a1.68,1.68,0,0,0-.49.84.46.46,0,0,0-.14.32c-.93,20.66,1.48,47.09,18.52,61.26a1.17,1.17,0,0,0,.25.16c.12.4.26.8.42,1.19l.06.15a2.64,2.64,0,0,0,.6,1.66,8.44,8.44,0,0,0,1.23,1.62c.85,1,2.27-.45,1.42-1.42-.1-.11-.34-.47-.55-.77v-.08a2.82,2.82,0,0,0-1-1.58c-.22-.41-.41-.84-.63-1.25a2.13,2.13,0,0,0-.3-.53h0c.55-7.6-.56-15.43-2.23-23a.65.65,0,0,0,.24,0c7.38-1.71,3-13.89,1.27-18-3.23-7.51-9.2-19-18-21.13A.42.42,0,0,0,63.49,59.64Zm-12,125.56c5.41,1.28,8.8-5,11-10.74a3.38,3.38,0,0,0,2.72,2,4.46,4.46,0,0,0,4.92-2.87,3.78,3.78,0,0,0,2,1.51,5.75,5.75,0,0,0,4.14-.17c-.16.47-.31.94-.47,1.4-1.15,3.4-2.16,7.29,1,9.93,5.91,4.9,14.73,7.09,21.92,9.25,10.08,3,20.39,5.21,30.45,8.34a1.23,1.23,0,0,0,1.42-.43,71.61,71.61,0,0,0,4.14-9.22c1.22.05,2.46.63,3.68.74a1,1,0,0,0,1-.59,10.34,10.34,0,0,0,5.15,4.28,1,1,0,0,0,1.31-.61c.45-1.08.91-2.13,1.34-3.19,1.16,7.31,3.94,15.92,9.86,19.6,2.93,1.82,6.64.79,9.09-1.33,3.08-2.66,3.24-8.09,3-11.77-.53-9.13-2.82-20.87-10.92-26.36-4.89-3.31-13.71-4.34-17.91.07.76-2.91,1.53-5.82,2.39-8.7a1.21,1.21,0,0,0-.7-1.51c-17.36-9-37.57-9.24-56.31-13.61a.75.75,0,0,0-1.21-.05,1,1,0,0,0-.81,1.28c0,.12.07.24.11.36-2.4,6.11-4.37,12.33-6.4,18.55-3.35,3.55-6,1-6.22-2.89,0-.34,0-.66,0-1-.06-1.38-2.14-1.65-2.22-.18a20,20,0,0,0,0,2.2,6.21,6.21,0,0,1-1.68,4.24c-3.55,3.52-2.88-4.93-2.48-6.15a1.11,1.11,0,0,0-2.08-.76c-1.62,4.55-4.56,17.69-11.45,16-6.08-1.44-1-14.92.67-18.29,3-6.07,8.41-14.54,15.49-16.11,6.92-1.54,7.38,10.41,11.79,12.91a.57.57,0,0,0,.89-.56c-1.34-6.07-6.4-16.15-13.9-14.46-8.32,1.87-14.45,12.87-17.57,20C46.26,171.69,43.6,183.34,51.45,185.2Zm57.86,37.46c-.64-7.73-4.28-14.12-11.78-16.95A50,50,0,0,0,85.2,203.1c-2.11-.22-4.23-.37-6.35-.54-2.28-.18-6.57.48-4.94-2.84a.8.8,0,0,0-.69-1.19c-7.11-.64-14.95-.77-21,3.56a.65.65,0,0,0-.28.67c-6.24-2.1-12.25-.54-15.37,5.51-.29.55.18,1.35.85,1.12a15.33,15.33,0,0,1,6.43-1C33.17,215.49,30,232.52,37.25,243c.32.45,1.25.51,1.34-.18a12.29,12.29,0,0,1,1.21-3.64c.45,10.94,6,20.35,18.09,21.48a.7.7,0,0,0,.49-1.2,13.45,13.45,0,0,1-4.41-6.9,26.39,26.39,0,0,0,15,6.92,26.13,26.13,0,0,0,19.62-6.29,39.54,39.54,0,0,0,4,10.5.79.79,0,0,0,.89.37c15-5.68,12.44-30.92,7.75-43.5,2.38.81,4.81,1.36,7,2.72A.77.77,0,0,0,109.31,222.66Zm99.47,34.92a1.27,1.27,0,0,0,1.57-.83c.4-2.14,1.1-5.23,1.67-8.64a.77.77,0,0,0,.53.17c1,0,1.72.42,2.74.07a3.06,3.06,0,0,0,1.52-1.22,40.92,40.92,0,0,0,3.55,3.61,1.14,1.14,0,0,0,1.9-.44l.33-.84c.94,2.93,2.55,5.86,5.47,6.24,3.47.45,4.9-3.24,5-6.08.13-5.44-3.7-10.8-8.1-13.63-4.18-2.7-8.61-.27-12,2.52,0-6.76-2-12.66-9.07-13.22-4.47-.35-9,.34-13.52.45-6.17.16-12.35.31-18.53.53-11.36.42-22.83,1-34.05,2.92-.82.14-.69,1.51.15,1.45l.61,0,0,.16c.4,1.44.74,2.9,1.06,4.37a17.59,17.59,0,0,0-6-4.33,1.05,1.05,0,0,0-1.07.24c-6.47,6.41-14.26,15.25-11.88,25,.58,2.39,2.56,3.62,4.69,2.22,2.37-1.55,3.88-4.74,4.89-7.78.37.8.77,1.61,1.12,2.51a1.15,1.15,0,0,0,1.56.47c2.58-1.49,4.27-3.18,5.1-5.55,1.17,1.19,2.55,1,4.57.21.35,1.15.74,2.29,1.2,3.41a1.34,1.34,0,0,0,1.46.66C166.77,249.32,187.77,253.11,208.78,257.58Z"/>
      <path class="cls-2" d="M230.78,288.71a25.41,25.41,0,0,0,2.21,4.15c.53.7-.33,1.48-1,1.34a71.18,71.18,0,0,1-16.9-5.77,51,51,0,0,0,1.32,5.32.88.88,0,0,1-1.08,1.08c-5.78-2.25-14.34-5.43-15.34-12.39-5.17,1.51-6.74,10.72-6.55,17.56h9a1.11,1.11,0,0,1,0-.26c-.37-1.34,1.48-2.41,2.21-1.05.19.35.36.71.53,1.06l.17.25h.09a2.38,2.38,0,0,1,2.14-1.83,1.16,1.16,0,0,1,1.11,1.45c0,.13-.05.25-.08.38h20a.68.68,0,0,1,.76,0h3.41c.22-.28.46-.56.71-.82a1.15,1.15,0,0,1,1.95.81h8.26a22.67,22.67,0,0,0-2.72-11.17A27.91,27.91,0,0,1,230.78,288.71Z"/>
      <path class="cls-2" d="M247.07,286.6c2.51,1,5.12,1.56,7.55,2.71-2.58-17.65-21.76-16-35.74-17.86a.81.81,0,0,1-.77-1A12,12,0,0,1,219,268c-6.55-.52-13.42-.4-19.13,3.21a.59.59,0,0,1-.47.09.52.52,0,0,1-.67.54c-5.18-1.24-9.82-.66-12.84,3.53a15.22,15.22,0,0,1,7.17-.05.69.69,0,0,1,.16,1.25C185.1,280.69,181.13,290.81,182,300h9.08c-.08-4.08,3.66-23.95,11.27-18.26.19.15.17.56-.14.53a5.92,5.92,0,0,0-1.46,0c1.4,5.78,8.08,8.67,13.49,10.39a29.65,29.65,0,0,0-1.46-5.57.89.89,0,0,1,1.21-1.21A66.44,66.44,0,0,0,230.32,292a25.49,25.49,0,0,0-2.23-4.19c-.51-.66.32-1.55,1-1.34a27.94,27.94,0,0,0,10.82.8,24.15,24.15,0,0,0-3.81-4.5c-1-.94.48-2.4,1.49-1.5a23.72,23.72,0,0,1,8.3,18.76h3.42a48.09,48.09,0,0,0-3.18-12.48A.74.74,0,0,1,247.07,286.6Z"/>
      <path class="cls-2" d="M135.06,233.73c-1.94-.92-2.35.37-3.5,1.72a57,57,0,0,0-6.82,9.25c-1,1.8-2.29,4-2.37,6.15,0,.48.18,7.33,2.21,5,2.41-2.73,3.69-6.37,4.53-9.86.32-1.34,2.17-.85,2.24.37a11.23,11.23,0,0,0,1.54,4.33,7.19,7.19,0,0,0,3.43-6.21c.05-1.06,1.74-1.64,2.18-.51.91,2.39,1.9,2.43,3.46,1.86-.7-2.61-1.23-5.27-1.77-7.92A17.42,17.42,0,0,0,135.06,233.73Z"/>
      <path class="cls-2" d="M46.43,249.47a2.06,2.06,0,0,0,2.14.8,5.12,5.12,0,0,0,2.1-1.15,31,31,0,0,1-3.24-4.87C46.24,245.71,45.24,247.84,46.43,249.47Z"/>
      <path class="cls-2" d="M95.66,251.54c2.09-1.39-.23-3.27-1.53-4.16a1.09,1.09,0,0,1-.19-.18,29.31,29.31,0,0,1-3.48,4.23C92.1,252.22,94.09,252.59,95.66,251.54Z"/>
      <path class="cls-2" d="M71.89,203.45a.81.81,0,0,1-.77-1A11.75,11.75,0,0,1,72,200c-6.54-.53-13.42-.41-19.12,3.21a.59.59,0,0,1-.47.08.54.54,0,0,1-.68.55c-5.18-1.24-9.81-.66-12.84,3.52a15.35,15.35,0,0,1,7.17,0,.69.69,0,0,1,.16,1.25c-10.86,5.5-14.31,21.75-8.65,32.15.58-1.78,1.54-3.29,2.33-5.11.31-.69,1.4-.33,1.38.37-.34,11.06,3.85,20.11,14.59,22.86a15,15,0,0,1-3-7.29c-.31-.32-.63-.64-.93-1-2,1.68-5.32,2.32-6.93-.08-1.72-2.56-.31-5.55,2-7A26.9,26.9,0,0,1,44.09,232c-.09-4.05,3.65-24,11.27-18.27.19.14.17.55-.14.52a5.45,5.45,0,0,0-1.46,0c1.4,5.78,8.08,8.66,13.49,10.38a28.91,28.91,0,0,0-1.46-5.57A.89.89,0,0,1,67,217.89,66.52,66.52,0,0,0,83.34,224a27.21,27.21,0,0,0-2.24-4.19c-.5-.66.32-1.54,1-1.34a27.75,27.75,0,0,0,10.82.8,24.15,24.15,0,0,0-3.81-4.5c-1-.93.48-2.4,1.5-1.5,10.3,9.11,10.21,22.55,4.14,32.62a.8.8,0,0,1,.2.07c2.28,1.3,4.69,4.43,2,6.62-2,1.61-4.85,1.1-7-.13l0,0c.32,1.45,2.37,10.71,4.49,9.49a12.37,12.37,0,0,0,4.77-4.67,30.59,30.59,0,0,0,3.52-13.69c.37-8-.48-16.56-3.6-24a.75.75,0,0,1,.91-.92c2.52,1,5.13,1.56,7.55,2.71C105.05,203.66,85.87,205.33,71.89,203.45Z"/>
      <path class="cls-2" d="M215.71,244.27a1.13,1.13,0,0,1,2.16.07,7.68,7.68,0,0,0,2.89,3.71,10.41,10.41,0,0,0,.8-3c.1-1.23,2-1.54,2.22-.23.4,2.09,1.52,8.69,4.7,8.66,2.69,0,2.42-4.54,2-6.19-1-3.84-3.56-8-7.26-9.84s-7.23.35-10.31,2.55a58.34,58.34,0,0,1-.62,6.46C213.93,245.55,214.71,247.08,215.71,244.27Z"/>
      <path class="cls-2" d="M166.68,105.86c1.4,5.42,3.47,13.93,7.44,17.59l.12-.36c0-.13,0-.26,0-.4a.19.19,0,0,1,.17-.19c1.17-3.58,2.09-7.2,3.22-10.8C173.82,110.42,169.77,107.77,166.68,105.86Z"/>
      <path class="cls-2" d="M166.16,103.92c5.15,2.3,15.63,9.51,18.7,4.24A54.28,54.28,0,0,0,189.12,98c.45-1.36.75-3.37,1.77-4.53a4.73,4.73,0,0,0-2.93,0c-7.73,2.39-14.58,6.86-21.83,10.34Z"/>
      <path class="cls-2" d="M184.51,111.85a7.64,7.64,0,0,1-4.72.41c-1,4.11-2,8.62-3.95,12.39a5.43,5.43,0,0,0,3.11.52c5.37-.63,10.65-2.89,15.48-5.21l2.51-1.24a134.13,134.13,0,0,1-10.05-9.18A6.18,6.18,0,0,1,184.51,111.85Z"/>
      <path class="cls-2" d="M187.56,108.38c3.83,3.11,7.53,6.34,11.54,9.21.49-.27,1-.52,1.47-.79,1.25-.72.49-.84-.07-2.6-1.35-4.28-3.25-16.08-7.91-19.83a78.56,78.56,0,0,1-3,9.16A48.51,48.51,0,0,1,187.56,108.38Z"/>
      <path class="cls-2" d="M124.89,67.49a21.54,21.54,0,0,1-2.19-13.38c12.71,11.63,38.33,10.39,51.44.19a.45.45,0,0,0,.13-.15c1.09,12.59-9.83,27.43-23.07,29.16C140,84.77,129.68,77.05,124.89,67.49Zm32,.53a7.81,7.81,0,0,0,2.89,4,1,1,0,0,0,1.4-.37A38.25,38.25,0,0,0,163.91,67c.63-1.22-1.22-2.31-1.85-1.08s-1.52,2.42-2.17,3.67a10.18,10.18,0,0,1-1.57-2.18C157.87,66.71,156.58,67.18,156.91,68ZM148,73.52a5.29,5.29,0,0,1,.54-.52,10.61,10.61,0,0,1,.28,2.81.81.81,0,0,0,1.62,0,10.26,10.26,0,0,0-.2-2.47,2.9,2.9,0,0,0-.65-1.46c-.93-1-2,.18-2.41,1C146.93,73.39,147.61,74,148,73.52ZM138.13,67l-1.86,1.87a1.57,1.57,0,0,1-.29-1,1.05,1.05,0,0,0-.66-1,.48.48,0,0,0-.69,0,1,1,0,0,0-.75.73,3.79,3.79,0,0,0,1.84,4,1.17,1.17,0,0,0,1.44-.19l2.68-2.65A1.21,1.21,0,0,0,138.13,67ZM155,74.68a.73.73,0,0,0-1.41-.39c-1.61,4.95-8.55,6.7-11.58,2a.44.44,0,0,0-.76.44C144.23,82.89,153.68,81.12,155,74.68Z"/>
      <path class="cls-2" d="M120.79,61.89a.45.45,0,0,1-.34.39c-1.88.55-3.78,2.74-3.08,4.79.86,2.51,3.62,2.47,5.78,2a27.22,27.22,0,0,1-1.13-2.6A27.68,27.68,0,0,1,120.79,61.89Z"/>
      <path class="cls-3" d="M267,200.68c.61,2.91,1.67,7.32-1.18,9.42-3.64,2.67-8.87,2-13.13,2.31-6.35.45-12.83,1-19.06-.7-2.69-.75-5.27-1.81-5.57-4.91-.61-6.11.19-12.5.37-18.62q.35-11.69.7-23.36s0,0,0-.06l-1.1.13a.54.54,0,0,1-.36-.08.7.7,0,0,1-1.16,0c-2.5-5,6.87-6.79,9.86-7.26,7.31-1.16,15.81-1.56,22.94.78,1.83.6,4.79,1.7,5.12,4s-1.43,3.19-3.34,3.5a.71.71,0,0,1,.05.26,105.19,105.19,0,0,0,2.22,20.71C264.33,191.44,266,196,267,200.68Zm-13-36.56c1.15.11,9.81,1.15,9-1.47-.57-2-3.18-2.7-4.92-3.15a52.59,52.59,0,0,0-19.29-.8c-2.23.27-12.26,1.33-11.08,5.3,0,0,.05,0,.08,0C236.2,161.89,245.36,163.26,253.91,164.12Zm10.06,31a104.86,104.86,0,0,1-4.3-29.08s0-.09,0-.14c-4.05.18-8-.63-12.06-1a93.12,93.12,0,0,0-17.83-.19.57.57,0,0,1,0,.14c.36,12.83-.29,25.61-.46,38.43,0,1.42-.34,3.54.45,4.81,1,1.64,3.24,2,5,2.46,5.87,1.43,11.88.86,17.84.44,3.26-.22,12.45.78,13.34-3.61C266.81,203.38,265.09,198.86,264,195.09Z"/>
      <path class="cls-3" d="M255.93,169.79a14.34,14.34,0,0,1,0,3.76.74.74,0,0,1-.72.72,130.66,130.66,0,0,0-21,.8.72.72,0,0,1-.7-.54c-.22-1.32-.33-2.68.65-3.69h-.07c-.51-.11-.4-1,.12-.92,7,.75,14-.94,21-.65A.73.73,0,0,1,255.93,169.79Zm-2.62,3a2.06,2.06,0,0,0,0-.26.67.67,0,0,1-.57.1.61.61,0,0,1-.07.14Z"/>
      <path class="cls-3" d="M16.5,36.52c6.9-.5,15.38.6,21.27-3.73,4.63-3.4,2.9-10.56,1.92-15.27C38.46,11.6,36.58,5.85,35.05,0H32.6c.68,2.84,1.41,5.66,2.24,8.45,1.82,6.11,4.6,13.44,3.28,19.88-1.45,7.11-16.35,5.49-21.62,5.85-5.49.38-11,.85-16.5.75v2.34C5.49,37.36,11,36.92,16.5,36.52Z"/>
      <path class="cls-3" d="M276.56,27.43c.5,5,4.67,6.75,9,8A57.14,57.14,0,0,0,300,37.27V34.93a56.12,56.12,0,0,1-12.42-1.46c-2.83-.68-6.43-1.33-8.08-4-1.28-2.07-.76-5.5-.73-7.8.1-7.23.29-14.46.47-21.68h-2.18C276.66,9.07,275.68,18.44,276.56,27.43Z"/>
      <path class="cls-3" d="M256,119.57c5,1.42,10.26,5.43,11.72,10.67.77,2.74.48,6.68-3,7.27-2.9.49-5.3-1.84-7.05-4.37,0,.3-.05.6-.07.9a1.14,1.14,0,0,1-1.7,1,38.82,38.82,0,0,1-4.44-2.41,3,3,0,0,1-1.1,1.61c-.87.64-1.7.44-2.64.74a.82.82,0,0,1-.56,0c.46,3.43.69,6.59.93,8.75.08.72-.64,1.2-1.26,1.26-21.39,1.86-42.59,4.37-62.33,13.37a1.34,1.34,0,0,1-1.59-.21c-.77-.94-1.47-1.92-2.15-2.91-1.7,1.32-3,1.93-4.43,1.13-.09,2.52-1.21,4.63-3.25,6.81a1.15,1.15,0,0,1-1.63,0c-.6-.76-1.22-1.42-1.81-2.07-.07,3.2-.59,6.7-2.4,8.87-1.63,2-3.88,1.36-5.13-.75-5.12-8.6-.25-19.32,4.06-27.35a1.09,1.09,0,0,1,.95-.54,17.82,17.82,0,0,1,7,2.39c-.73-1.31-1.48-2.6-2.29-3.87a.61.61,0,0,1-.07-.14l-.57.22c-.79.3-1.31-1-.57-1.35,10.16-5.14,21-9,31.71-12.74,5.84-2,11.7-4,17.57-5.93,4.25-1.41,8.41-3.41,12.79-4.38,6.89-1.52,10.51,3.54,12.53,10C247.73,121.83,251.25,118.22,256,119.57Zm-76.47,33.71c-1.42-2.3-2.71-4.68-4-7.06a17.05,17.05,0,0,0-6.14-2.53c-2.13-.32-2.14,1-2.85,2.66a57.18,57.18,0,0,0-3.81,10.84c-.43,2-1,4.51-.46,6.58.12.45,2.31,6.95,3.57,4.17,1.51-3.32,1.67-7.17,1.45-10.75-.08-1.38,1.83-1.45,2.25-.31a11.26,11.26,0,0,0,2.75,3.7,7.23,7.23,0,0,0,1.46-7c-.27-1,1.19-2.08,1.93-1.12C177.29,154.53,178.25,154.28,179.57,153.28Zm66-10.73c-.6-5.79-1.12-11.8-3.07-17.29-1.23-3.49-3.78-8-8.22-7.48-3.59.44-6.76,2.18-10.15,3.3-16.77,5.57-33.34,11.5-49.87,17.71,2,3.15,3.67,6.46,5.49,9.71.63,1.13,1.28,2.6,2.08,3.85a1.23,1.23,0,0,1,.76,1,3.24,3.24,0,0,0,4,1.17,121.15,121.15,0,0,1,18.57-6.29C218.39,145,232,143.71,245.52,142.55Zm.17-15.65a60.8,60.8,0,0,1,1.31,6.36c1.31-1.33,2.5-.09,2.64-3.07a1.13,1.13,0,0,1,2.08-.57,7.76,7.76,0,0,0,3.85,2.71,10.07,10.07,0,0,0-.12-3.13c-.25-1.2,1.45-2,2.07-.87,1,1.89,4,7.87,7,6.91,2.56-.81,1-5,.09-6.5-2.08-3.38-5.75-6.65-9.82-7.29S248,123.91,245.69,126.9Z"/>
      <path class="cls-3" d="M234.94,122.6c1.05,2.25,2.2,5.32,1.21,7.8a3.9,3.9,0,0,1-3.68,2.69,4.4,4.4,0,0,1-3.77-2.72,7.47,7.47,0,0,1-.17-5.25.79.79,0,0,1-.35-1.14,4.24,4.24,0,0,1,2.61-1.39,13.19,13.19,0,0,1,3.25-.51A1,1,0,0,1,234.94,122.6Zm-1.54,1.58a10.06,10.06,0,0,0-2.42.47c-.39.13-.81.33-1.22.47a6.74,6.74,0,0,0,.38,4.42,2.89,2.89,0,0,0,2.33,1.61,1.93,1.93,0,0,0,1.83-1.68A8.74,8.74,0,0,0,233.4,124.18Z"/>
      <path class="cls-3" d="M208.78,257.58c-21-4.47-42-8.26-63.52-5.43a1.34,1.34,0,0,1-1.46-.66c-.46-1.12-.85-2.26-1.2-3.41-2,.76-3.4,1-4.57-.21-.83,2.37-2.52,4.06-5.1,5.55a1.15,1.15,0,0,1-1.56-.47c-.35-.9-.75-1.71-1.12-2.51-1,3-2.52,6.23-4.89,7.78-2.13,1.4-4.11.17-4.69-2.22-2.38-9.71,5.41-18.55,11.88-25a1.05,1.05,0,0,1,1.07-.24,17.59,17.59,0,0,1,6,4.33c-.32-1.47-.66-2.93-1.06-4.37l0-.16-.61,0c-.84.06-1-1.31-.15-1.45,11.22-1.95,22.69-2.5,34.05-2.92,6.18-.22,12.36-.37,18.53-.53,4.49-.11,9-.8,13.52-.45,7,.56,9,6.46,9.07,13.22,3.4-2.79,7.83-5.22,12-2.52,4.4,2.83,8.23,8.19,8.1,13.63-.07,2.84-1.5,6.53-5,6.08-2.92-.38-4.53-3.31-5.47-6.24l-.33.84a1.14,1.14,0,0,1-1.9.44,40.92,40.92,0,0,1-3.55-3.61,3.06,3.06,0,0,1-1.52,1.22c-1,.35-1.75-.08-2.74-.07a.77.77,0,0,1-.53-.17c-.57,3.41-1.27,6.5-1.67,8.64A1.27,1.27,0,0,1,208.78,257.58Zm3.5-11.14c1.65-.89,2.43.64,3.43-2.17a1.13,1.13,0,0,1,2.16.07,7.68,7.68,0,0,0,2.89,3.71,10.41,10.41,0,0,0,.8-3c.1-1.23,2-1.54,2.22-.23.4,2.09,1.52,8.69,4.7,8.66,2.69,0,2.42-4.54,2-6.19-1-3.84-3.56-8-7.26-9.84s-7.23.35-10.31,2.55A58.34,58.34,0,0,1,212.28,246.44ZM142,245.87c-.7-2.61-1.23-5.27-1.77-7.92a17.42,17.42,0,0,0-5.13-4.22c-1.94-.92-2.35.37-3.5,1.72a57,57,0,0,0-6.82,9.25c-1,1.8-2.29,4-2.37,6.15,0,.48.18,7.33,2.21,5,2.41-2.73,3.69-6.37,4.53-9.86.32-1.34,2.17-.85,2.24.37a11.23,11.23,0,0,0,1.54,4.33,7.19,7.19,0,0,0,3.43-6.21c.05-1.06,1.74-1.64,2.18-.51C139.41,246.4,140.4,246.44,142,245.87Zm66.2,9c1.11-5.7,2.37-11.6,2.12-17.42-.16-3.7-1.27-8.79-5.68-9.56-3.56-.62-7.1.11-10.67.19-17.66.42-35.24,1.25-52.87,2.36,1,3.59,1.62,7.25,2.41,10.89.28,1.27.47,2.87.87,4.29a1.22,1.22,0,0,1,.42,1.2,3.23,3.23,0,0,0,3.51,2.3,122.21,122.21,0,0,1,19.6-.58C181.5,249.31,194.84,252,208.16,254.88Z"/>
      <path class="cls-3" d="M203.87,232.71c.35,2.46.55,5.74-1.12,7.82a3.9,3.9,0,0,1-4.31,1.49,4.37,4.37,0,0,1-2.81-3.69,7.5,7.5,0,0,1,1.37-5.08.79.79,0,0,1,0-1.19,4.31,4.31,0,0,1,2.9-.57,13.8,13.8,0,0,1,3.26.47A1,1,0,0,1,203.87,232.71Zm-1.94,1.07a10.54,10.54,0,0,0-2.44-.26c-.42,0-.87.08-1.31.09a6.72,6.72,0,0,0-.93,4.34,2.91,2.91,0,0,0,1.76,2.22,1.93,1.93,0,0,0,2.24-1.07A8.71,8.71,0,0,0,201.93,233.78Z"/>
      <path class="cls-3" d="M36.74,69.1C24.35,70.18,12,71.49,0,74.14V71.28c11.65-2.44,23.5-3.56,35.36-4.58-.6-5.78-1.12-11.79-3.06-17.28-1.24-3.5-3.78-8-8.22-7.49-3.59.45-6.77,2.18-10.15,3.31Q6.94,47.55,0,50V47.32L9.8,44c4.26-1.42,8.41-3.41,12.8-4.38,6.88-1.53,10.51,3.54,12.53,10,2.44-3.66,6-7.28,10.75-5.92,5,1.42,10.27,5.43,11.73,10.67.76,2.74.48,6.68-3,7.26-2.9.49-5.29-1.83-7.05-4.36,0,.29,0,.59-.07.9a1.14,1.14,0,0,1-1.69,1,42.42,42.42,0,0,1-4.45-2.41,3.07,3.07,0,0,1-1.09,1.61c-.88.63-1.7.43-2.64.74a.88.88,0,0,1-.56,0c.45,3.43.69,6.58.92,8.74C38.08,68.57,37.37,69.05,36.74,69.1Zm-1.2-18a57.34,57.34,0,0,1,1.3,6.36c1.32-1.34,2.51-.1,2.64-3.08a1.13,1.13,0,0,1,2.08-.56,7.78,7.78,0,0,0,3.85,2.7,10,10,0,0,0-.11-3.12c-.26-1.21,1.44-2,2.06-.87,1,1.88,4,7.87,7,6.91,2.57-.82,1-5,.1-6.51-2.08-3.38-5.76-6.64-9.82-7.28S37.84,48.06,35.54,51.06Z"/>
      <path class="cls-3" d="M24.78,46.75C25.84,49,27,52.07,26,54.55a3.87,3.87,0,0,1-3.68,2.69,4.35,4.35,0,0,1-3.76-2.71,7.5,7.5,0,0,1-.18-5.26A.79.79,0,0,1,18,48.13a4.32,4.32,0,0,1,2.61-1.39,13.83,13.83,0,0,1,3.26-.5A1,1,0,0,1,24.78,46.75Zm-1.54,1.59a9.89,9.89,0,0,0-2.41.47c-.4.13-.81.33-1.23.46A6.73,6.73,0,0,0,20,53.69a2.91,2.91,0,0,0,2.33,1.61,1.91,1.91,0,0,0,1.83-1.68A8.72,8.72,0,0,0,23.24,48.34Z"/>
      <path class="cls-3" d="M147.39,108.94c-5.92-3.42-14-1.58-20.5-1.65-4.36-.05-8.79-.64-13.13-1-4.64-.41-9.87-.7-14.18-2.68-1.33-.61-2.49,1.26-1.16,2,5.25,2.9,12.31,2.93,18.14,3.44a162.36,162.36,0,0,0,19,.51c3.27-.1,6.87-.2,9.94,1.11,2.89,1.23,1.87,6.57,1.71,9-.41,6-1.9,11.75-1.75,17.72,0,2,.69,5.28-.67,6.94-1.79,2.17-7.95,1.57-10.37,1.62-9.29.2-18.58-1.92-27.86-2.27-3.27-.12-6.76-.18-9.33-2.48-3.12-2.78-2.85-7.88-2.74-11.66.23-7.89,1.91-15.87,3.79-23.52a.56.56,0,0,0-1.07-.3c-2.39,8.18-4.4,16.57-4.9,25.1-.35,6.09,1.26,12.39,7.62,14.4,3.3,1,7.13.77,10.54.94,6.32.3,12.59,1.44,18.89,2,3.94.33,15.9,1.85,18-3.44.89-2.27.57-4.92.51-7.29a66.35,66.35,0,0,1,1-10.71C149.37,122.52,152.2,111.71,147.39,108.94Z"/>
      <path class="cls-3" d="M120.4,139.51c1.67-7.65.77-16.2,1.3-24a.85.85,0,0,0-1.58-.43c-1.6,3.05-1.34,7.06-1.29,10.4a130,130,0,0,1-.12,13.82C118.62,140.25,120.19,140.45,120.4,139.51Z"/>
      <path class="cls-3" d="M125.35,130.93a.64.64,0,0,0,0,1.28c4.28.24,8.58,1,12.86,1a1,1,0,0,0,0-1.91C133.94,131.09,129.62,130.78,125.35,130.93Z"/>
      <path class="cls-3" d="M124.62,137.67a33.22,33.22,0,0,0,6.58.56c1.5,0,6,1,7-.53a.66.66,0,0,0,0-.69c-1-1.47-5.46-.56-7-.53a34.79,34.79,0,0,0-6.58.56A.33.33,0,0,0,124.62,137.67Z"/>
      <path class="cls-3" d="M136.1,122.57c.28-2.29.18-4.61.82-6.85a.88.88,0,0,1-.44-1.62c1.43-.93,3.31-.83,4.94-.83a1,1,0,0,1,.91.69,28.59,28.59,0,0,1,.66,8.61,1,1,0,0,1-.68.9c-1.74.63-3.6,0-5.39-.07C136.52,123.37,136,123,136.1,122.57Zm1.58-.78a12.13,12.13,0,0,0,3.45.09,30.58,30.58,0,0,0-.44-6.7,15.68,15.68,0,0,0-2.57.29,1.09,1.09,0,0,1,0,.18A18.29,18.29,0,0,0,137.68,121.79Z"/>
      <path class="cls-3" d="M114.24,116.11c-1.24.22-1.24,1.56-2.38-1.43a.68.68,0,0,0-1.29,0,6.86,6.86,0,0,1-2.22,3c-.55-1.37-1.68-2.47-2.39-3.78a.63.63,0,0,0-1.07,0c-.62,1-1.34,1.9-2,2.87-.72-1.37-1.43-2.75-2.16-4.11a.54.54,0,0,0-1,.13c-.51,1.75,0,3.5.15,5.28a.37.37,0,0,0,.73,0c0-1.13-.2-2.29-.14-3.42l1.78,3.75a.66.66,0,0,0,1.13,0c.63-1.05,1.38-2,2-3a8.64,8.64,0,0,1,1.92,3.53.65.65,0,0,0,.94.38,7.25,7.25,0,0,0,2.88-2.85c.73,1.32,1.54,1.53,3.41,1C115.51,117.24,115.12,115.94,114.24,116.11Z"/>
      <path class="cls-3" d="M98.39,123.69c-.44,1.29-.67,2.62-1.14,3.9-.18.51.66.87.88.37.29-.68.52-1.38.76-2.08a11.67,11.67,0,0,1,.68,2.48.72.72,0,0,0,1.33.36c.77-1.2,1.84-2.12,2.71-3.23a16.51,16.51,0,0,1,1.23,1.92.69.69,0,0,0,.93.25c1-.63,1.79-1.48,2.73-2.18,1.51,1.83,2.62,1.16,4.91.12a.53.53,0,0,0-.13-1c-1.64-.29-2.64,1.56-4-.49a.71.71,0,0,0-1-.25c-1,.64-1.77,1.5-2.69,2.21a6.89,6.89,0,0,0-1.76-2.19.69.69,0,0,0-.93.25,22.2,22.2,0,0,1-2.3,2.64,18.49,18.49,0,0,1-1-3.11C99.5,123,98.58,123.16,98.39,123.69Z"/>
      <path class="cls-3" d="M111.63,133.42a1.9,1.9,0,0,0-1.58-.09,1.74,1.74,0,0,0-1,.83,13.31,13.31,0,0,0-1.12-1.88.81.81,0,0,0-1.27.17,24.08,24.08,0,0,1-1.69,2.79c-.65-1.37-1.41-2.68-2.17-4a.68.68,0,0,0-1.17,0,12.41,12.41,0,0,0-1.24,4.2c0,.6,1,.74,1.06.14a9.49,9.49,0,0,1,.77-2.49,31.42,31.42,0,0,1,1.83,3.84.77.77,0,0,0,1.28.33,16.49,16.49,0,0,0,2-2.8,14.87,14.87,0,0,0,1.19,2,.83.83,0,0,0,1.54-.42c.21-1.73,1.07-.26,1.81.1a4.72,4.72,0,0,0,2.71,0c.9-.14.62-1.47-.2-1.51C113.16,134.59,112.73,134.07,111.63,133.42Z"/>
      <path class="cls-3" d="M26.55,191.54c.89-2.26.57-4.91.51-7.29a66.35,66.35,0,0,1,1-10.71c.55-4.14,3.38-14.95-1.43-17.73-5.92-3.42-14-1.57-20.5-1.64-2,0-4.07-.17-6.12-.36v2.37c4.92.3,9.76.37,14.76.22,3.27-.1,6.88-.2,9.94,1.1,2.89,1.23,1.88,6.57,1.71,9-.41,6-1.9,11.74-1.75,17.71.05,2,.69,5.28-.67,6.95-1.79,2.17-7.95,1.56-10.37,1.62A100.5,100.5,0,0,1,0,191.92V194c2.85.36,5.7.72,8.56,1C12.5,195.32,24.46,196.84,26.55,191.54Z"/>
      <path class="cls-3" d="M0,161.55v22.84c1.15-7.13.45-14.87.93-22A.82.82,0,0,0,0,161.55Z"/>
      <path class="cls-3" d="M4.59,179.09c4.27.24,8.57,1,12.85,1a1,1,0,0,0,0-1.91c-4.27-.17-8.59-.49-12.85-.33A.64.64,0,0,0,4.59,179.09Z"/>
      <path class="cls-3" d="M17.39,184.58a.66.66,0,0,0,0-.69c-1-1.48-5.46-.57-7-.53a33.06,33.06,0,0,0-6.57.56.33.33,0,0,0,0,.63,34.62,34.62,0,0,0,6.57.56C11.93,185.14,16.4,186.05,17.39,184.58Z"/>
      <path class="cls-3" d="M15.71,161c1.43-.93,3.31-.83,4.95-.83a1,1,0,0,1,.91.69,28.91,28.91,0,0,1,.65,8.61.93.93,0,0,1-.68.89c-1.74.64-3.6,0-5.38-.07-.41,0-.88-.36-.83-.82.28-2.3.18-4.61.82-6.85A.88.88,0,0,1,15.71,161Zm1.21,7.69a12.05,12.05,0,0,0,3.44.09,30.58,30.58,0,0,0-.43-6.7,15.67,15.67,0,0,0-2.58.29,1.15,1.15,0,0,1,0,.18A18,18,0,0,0,16.92,168.67Z"/>
      <path class="cls-3" d="M180.14,94.09c3.29-1.52,8.18-4.4,11.93-3.19s5.48,6.63,6.64,9.82c1.88,5.22,3,10.75,5.17,15.87a1.17,1.17,0,0,1-.54,1.33l-2.05,1.18.09.06c1.19.78.09,2.69-1.13,1.92-.39-.25-.77-.53-1.16-.79a85.51,85.51,0,0,1-10.94,4.89c-3.45,1.25-9,3.6-12.75,2.11s-5.7-6.11-7.11-9.54a109.6,109.6,0,0,1-4.58-14,1.12,1.12,0,0,1,1.19-1.42C169.93,99.48,174.91,96.51,180.14,94.09Zm-2.49,17.61c-3.83-1.28-7.88-3.93-11-5.84,1.4,5.42,3.47,13.93,7.44,17.59l.12-.36c0-.13,0-.26,0-.4a.19.19,0,0,1,.17-.19C175.6,118.92,176.52,115.3,177.65,111.7Zm19.29,7a134.13,134.13,0,0,1-10.05-9.18,6.18,6.18,0,0,1-2.38,2.31,7.64,7.64,0,0,1-4.72.41c-1,4.11-2,8.62-3.95,12.39a5.43,5.43,0,0,0,3.11.52c5.37-.63,10.65-2.89,15.48-5.21Zm-7.38-15.19a48.51,48.51,0,0,1-2,4.85c3.83,3.11,7.53,6.34,11.54,9.21.49-.27,1-.52,1.47-.79,1.25-.72.49-.84-.07-2.6-1.35-4.28-3.25-16.08-7.91-19.83A78.56,78.56,0,0,1,189.56,103.53ZM188,93.45c-7.73,2.39-14.58,6.86-21.83,10.34l0,.13c5.15,2.3,15.63,9.51,18.7,4.24A54.28,54.28,0,0,0,189.12,98c.45-1.36.75-3.37,1.77-4.53A4.73,4.73,0,0,0,188,93.45Z"/>
      <path class="cls-3" d="M217.84,199.28c-.67.39-1.36.79-2.05,1.17l.09.06c1.19.78.1,2.69-1.12,1.92-.4-.25-.78-.52-1.16-.78a85.64,85.64,0,0,1-10.95,4.89c-3.44,1.24-9,3.59-12.74,2.11s-5.7-6.11-7.11-9.54a109.79,109.79,0,0,1-4.59-14.05,1.12,1.12,0,0,1,1.2-1.41c5-2.81,10-5.78,15.24-8.2,3.29-1.52,8.18-4.41,11.93-3.19s5.48,6.62,6.63,9.82c1.88,5.22,3,10.74,5.17,15.86A1.18,1.18,0,0,1,217.84,199.28Zm-37.17-14c5.14,2.31,15.62,9.51,18.7,4.25a53.68,53.68,0,0,0,4.25-10.21c.45-1.35.75-3.37,1.77-4.53a4.81,4.81,0,0,0-2.93,0c-7.73,2.39-14.57,6.87-21.83,10.35A.56.56,0,0,1,180.67,185.27Zm11.49,7.79c-3.83-1.28-7.88-3.94-11-5.84,1.39,5.41,3.47,13.92,7.44,17.58l.12-.35c0-.13,0-.27,0-.41a.2.2,0,0,1,.18-.19C190.1,200.28,191,196.65,192.16,193.06Zm19.29,7a132.5,132.5,0,0,1-10-9.19,6.16,6.16,0,0,1-2.39,2.32,7.67,7.67,0,0,1-4.71.41c-1,4.1-2,8.62-4,12.38a5.55,5.55,0,0,0,3.12.53c5.37-.63,10.65-2.89,15.47-5.22Zm3.56-4.52c-1.36-4.29-3.25-16.09-7.92-19.84a77.89,77.89,0,0,1-3,9.16,51.4,51.4,0,0,1-2,4.86c3.83,3.11,7.54,6.33,11.55,9.2.49-.26,1-.51,1.46-.79C216.33,197.44,215.57,197.32,215,195.56Z"/>
      <path class="cls-3" d="M3.87,234.44c-1.11.4-2.45.92-3.87,1.39V233.3a68.72,68.72,0,0,0,10.15-4.08L12.66,228a134.13,134.13,0,0,1-10-9.18,6.11,6.11,0,0,1-2.38,2.31l-.23.1v-3a4.11,4.11,0,0,0,.58-.76,52.81,52.81,0,0,0,4.26-10.21c.45-1.35.75-3.37,1.77-4.52a4.73,4.73,0,0,0-2.93,0c-1.25.38-2.47.84-3.68,1.32v-2.64c2.59-1.12,5.42-2,7.79-1.23,3.67,1.19,5.49,6.62,6.64,9.82,1.88,5.22,3,10.75,5.17,15.87a1.17,1.17,0,0,1-.54,1.33c-.68.4-1.36.79-2,1.17l.09.06c1.19.79.1,2.7-1.12,1.92-.4-.25-.78-.52-1.16-.78A85.64,85.64,0,0,1,3.87,234.44Zm11-7.6c.49-.26,1-.51,1.47-.78,1.26-.72.49-.84-.06-2.6-1.36-4.28-3.25-16.08-7.92-19.84a78,78,0,0,1-3,9.17,52.42,52.42,0,0,1-2,4.85C7.11,220.75,10.82,224,14.82,226.84Z"/>
      <path class="cls-3" d="M248.5,44.52a.49.49,0,0,1,.32-.12,1.75,1.75,0,0,1,1-.22s.06,0,.1,0a.43.43,0,0,1,.76,0c4.59,7.82.37,20.11-2.83,27.63C246,76,240.23,87.52,233.9,83.36a.52.52,0,0,1-.17-.16c-4.34,6.44-9.22,12.65-15.1,17.51h0a1.75,1.75,0,0,1-.17.58c-.15.44-.32.87-.47,1.31a2.78,2.78,0,0,1-.43,1.84l-.05.06c-.08.36-.17.78-.18.93-.12,1.28-2.14,1.24-2,0a8.52,8.52,0,0,1,.32-2,2.55,2.55,0,0,1,.79-1.58l.06-.16a11.87,11.87,0,0,1,.58-1.12.88.88,0,0,1-.07-.29C215.48,78.13,232.92,58.13,248.5,44.52ZM239,75c-1.42,2.32-2.89,4.67-4.43,7,7.07,2.24,11.47-9.57,13.17-14.56,1.88-5.55,4.25-13.16,3.13-19.47C249.38,57.54,243.9,67,239,75Zm-7.81-9.56c1.4,3.4,4,6.19,7.88,6.13,4.67-7.79,9.25-16.38,10.31-25.29a.86.86,0,0,1,.09-.27.86.86,0,0,1-.32,0,1.09,1.09,0,0,1-.56-.22C242.76,51.88,236.47,58.38,231.15,65.44ZM218.63,98.49c7.33-6.44,13.11-15,18.15-23.22l1.21-2c-3.76-.38-6.34-3.25-7.68-6.71C223.39,76.05,218.33,86.55,218.63,98.49Z"/>
      <path class="cls-3" d="M266.42,285.17c.85,1-.57,2.4-1.42,1.42a8.87,8.87,0,0,1-1.23-1.62,2.56,2.56,0,0,1-.59-1.66,1,1,0,0,1-.07-.15,10.46,10.46,0,0,1-.41-1.19,1,1,0,0,1-.26-.16c-17-14.17-19.44-40.6-18.52-61.26a.5.5,0,0,1,.14-.32,1.77,1.77,0,0,1,.5-.84l.08,0a.43.43,0,0,1,.52-.55c8.82,2.08,14.79,13.62,18,21.13,1.78,4.13,6.12,16.31-1.27,18a.6.6,0,0,1-.23,0c1.66,7.58,2.77,15.41,2.23,23h0a1.91,1.91,0,0,1,.3.52c.21.41.4.84.62,1.25a2.82,2.82,0,0,1,1,1.58s0,.05,0,.08C266.08,284.7,266.33,285.06,266.42,285.17ZM248,221.24c5.91,7.67,8.93,18.13,11.33,27.26.7,2.63,1.38,5.32,2,8,6.49-3.56,1-14.91-1.43-19.58C257.22,231.76,253.36,224.8,248,221.24Zm-1,26.3c3.43,1.34,7.23,1.4,9.87-1.46-2.4-8.75-5.44-18-11.16-24.93a1.41,1.41,0,0,1-.13-.24,1.56,1.56,0,0,1-.22.23,1.16,1.16,0,0,1-.55.25C245.28,229.78,245.63,238.82,247.06,247.54Zm11,2.72-.6-2.23c-2.87,2.45-6.73,2.33-10.16.91,2.07,11.55,6.16,22.46,15,30.49C262.71,269.68,260.52,259.59,258.06,250.26Z"/>
      <path class="cls-3" d="M63.4,59.69l.09,0a.42.42,0,0,1,.52-.55c8.82,2.08,14.79,13.62,18,21.13,1.77,4.13,6.11,16.31-1.27,18a.65.65,0,0,1-.24,0c1.67,7.58,2.78,15.41,2.23,23h0a2.13,2.13,0,0,1,.3.53c.22.41.41.84.63,1.25a2.82,2.82,0,0,1,1,1.58v.08c.21.3.45.66.55.77.85,1-.57,2.4-1.42,1.42a8.44,8.44,0,0,1-1.23-1.62,2.64,2.64,0,0,1-.6-1.66l-.06-.15c-.16-.39-.3-.79-.42-1.19a1.17,1.17,0,0,1-.25-.16c-17-14.17-19.45-40.6-18.52-61.26a.46.46,0,0,1,.14-.32A1.68,1.68,0,0,1,63.4,59.69ZM76.9,90.56c-.19-.74-.39-1.48-.59-2.24-2.88,2.46-6.73,2.34-10.16.91,2.06,11.56,6.16,22.47,15,30.5C81.56,110,79.37,99.89,76.9,90.56Zm-10-29c5.92,7.67,8.93,18.13,11.34,27.26.69,2.63,1.38,5.32,2,8,6.5-3.56,1-14.91-1.43-19.58C76.07,72.06,72.2,65.09,66.87,61.54Zm-3.15.15c.4,8.39.75,17.43,2.19,26.15,3.42,1.34,7.23,1.4,9.87-1.46-2.4-8.75-5.45-18-11.16-24.93a.94.94,0,0,1-.13-.24,1.56,1.56,0,0,1-.22.23A1.2,1.2,0,0,1,63.72,61.69Z"/>
      <path class="cls-3" d="M109.31,222.66a.77.77,0,0,1-1.14.65c-2.18-1.36-4.61-1.91-7-2.72,4.69,12.58,7.25,37.82-7.75,43.5a.79.79,0,0,1-.89-.37,39.54,39.54,0,0,1-4-10.5,26.13,26.13,0,0,1-19.62,6.29,26.39,26.39,0,0,1-15-6.92,13.45,13.45,0,0,0,4.41,6.9.7.7,0,0,1-.49,1.2c-12.13-1.13-17.64-10.54-18.09-21.48a12.29,12.29,0,0,0-1.21,3.64c-.09.69-1,.63-1.34.18-7.21-10.51-4.08-27.54,6.6-34.62a15.33,15.33,0,0,0-6.43,1c-.67.23-1.14-.57-.85-1.12,3.12-6.05,9.13-7.61,15.37-5.51a.65.65,0,0,1,.28-.67c6.05-4.33,13.89-4.2,21-3.56a.8.8,0,0,1,.69,1.19c-1.63,3.32,2.66,2.66,4.94,2.84,2.12.17,4.24.32,6.35.54a50,50,0,0,1,12.33,2.61C105,208.54,108.67,214.93,109.31,222.66ZM93.9,220.83a27.91,27.91,0,0,1-10.11-.11A25.37,25.37,0,0,0,86,224.86c.52.7-.34,1.49-1,1.34a70.71,70.71,0,0,1-16.9-5.76,51.63,51.63,0,0,0,1.32,5.32.88.88,0,0,1-1.08,1.07C62.54,224.58,54,221.4,53,214.45c-7,2-7.41,18.36-5.76,23.55a29.71,29.71,0,0,0,5.42,9.82.89.89,0,0,1,.7.83c5.52,6.2,13.55,10.1,22.06,8.54C92.27,254.1,101.58,235,93.9,220.83ZM47.43,244.25c-1.19,1.46-2.19,3.59-1,5.22a2.06,2.06,0,0,0,2.14.8,5.12,5.12,0,0,0,2.1-1.15A31,31,0,0,1,47.43,244.25Zm46.51,2.95a29.31,29.31,0,0,1-3.48,4.23c1.64.79,3.63,1.16,5.2.11,2.09-1.39-.23-3.27-1.53-4.16A1.09,1.09,0,0,1,93.94,247.2Zm13.69-25.89c-2.58-17.65-21.76-16-35.74-17.86a.81.81,0,0,1-.77-1A11.75,11.75,0,0,1,72,200c-6.54-.53-13.42-.41-19.12,3.21a.59.59,0,0,1-.47.08.54.54,0,0,1-.68.55c-5.18-1.24-9.81-.66-12.84,3.52a15.35,15.35,0,0,1,7.17,0,.69.69,0,0,1,.16,1.25c-10.86,5.5-14.31,21.75-8.65,32.15.58-1.78,1.54-3.29,2.33-5.11.31-.69,1.4-.33,1.38.37-.34,11.06,3.85,20.11,14.59,22.86a15,15,0,0,1-3-7.29c-.31-.32-.63-.64-.93-1-2,1.68-5.32,2.32-6.93-.08-1.72-2.56-.31-5.55,2-7A26.9,26.9,0,0,1,44.09,232c-.09-4.05,3.65-24,11.27-18.27.19.14.17.55-.14.52a5.45,5.45,0,0,0-1.46,0c1.4,5.78,8.08,8.66,13.49,10.38a28.91,28.91,0,0,0-1.46-5.57A.89.89,0,0,1,67,217.89,66.52,66.52,0,0,0,83.34,224a27.21,27.21,0,0,0-2.24-4.19c-.5-.66.32-1.54,1-1.34a27.75,27.75,0,0,0,10.82.8,24.15,24.15,0,0,0-3.81-4.5c-1-.93.48-2.4,1.5-1.5,10.3,9.11,10.21,22.55,4.14,32.62a.8.8,0,0,1,.2.07c2.28,1.3,4.69,4.43,2,6.62-2,1.61-4.85,1.1-7-.13l0,0c.32,1.45,2.37,10.71,4.49,9.49a12.37,12.37,0,0,0,4.77-4.67,30.59,30.59,0,0,0,3.52-13.69c.37-8-.48-16.56-3.6-24a.75.75,0,0,1,.91-.92C102.6,219.64,105.21,220.16,107.63,221.31Z"/>
      <path class="cls-3" d="M60.55,230.18a2.41,2.41,0,0,0-2.17,1.9,3.71,3.71,0,0,0-.23-.32c-.17-.36-.34-.72-.53-1.06-.72-1.37-2.58-.3-2.21,1a1.3,1.3,0,0,0,.11.85,20.6,20.6,0,0,0,2.06,3.47,11.15,11.15,0,0,0,.71.86c1.16,1.23,3-.62,1.86-1.86-.08-.08-.13-.17-.2-.25a2.17,2.17,0,0,1,.07-.24,1.1,1.1,0,0,0,1.35-1.08,10.59,10.59,0,0,1,.29-1.86A1.15,1.15,0,0,0,60.55,230.18Z"/>
      <path class="cls-3" d="M86.41,231.18a14.23,14.23,0,0,0-2,2.64l-.29-.22-.64-.84a1.32,1.32,0,0,0-1-.5l-.14-.15a.75.75,0,0,0-1.28.45,1.14,1.14,0,0,0,0,1.53c.26.28.49.58.74.88.49,1.26,1.36,2.58,2.4,2.76a1.35,1.35,0,0,0,1.33-.65,1,1,0,0,0,1.09-.3A7.39,7.39,0,0,0,88.36,232,1.15,1.15,0,0,0,86.41,231.18Z"/>
      <path class="cls-3" d="M70.93,239.81a16.41,16.41,0,0,1,2.63,1.45c.29.2.7.59.74.84h0a1.84,1.84,0,0,1-.55.21c-.66.18-1.26.08-1.71.7a.56.56,0,0,0,0,.6c1,1.31,3.72.22,3.91-1.31.25-2-3.2-3.12-4.58-3.53C70.77,238.6,70.35,239.53,70.93,239.81Z"/>
      <path class="cls-3" d="M84.77,243.54c-6.21,7.6-15.17,9.59-22.56,2.13-.42-.43-1,.2-.65.64,6.93,8.21,18.51,7.13,24.21-2C86.14,243.71,85.23,243,84.77,243.54Z"/>
      <path class="cls-3" d="M184.24,11a23,23,0,0,1-3.79-11H182a22.91,22.91,0,0,0,2.57,8.73c.58-1.78,1.54-3.3,2.33-5.12.3-.69,1.4-.32,1.38.38-.35,11.06,3.85,20.1,14.58,22.86a15.1,15.1,0,0,1-3-7.3c-.31-.31-.63-.63-.93-1-2.05,1.68-5.32,2.33-6.93-.08s-.31-5.54,2-7A26.94,26.94,0,0,1,191.08,0V0h2.34a23.53,23.53,0,0,0,.8,6,29.76,29.76,0,0,0,5.42,9.83.88.88,0,0,1,.7.82c5.51,6.21,13.55,10.11,22,8.55A26.24,26.24,0,0,0,243.61,0h2.31a28.45,28.45,0,0,1-4.15,13.86l.2.06c2.28,1.31,4.69,4.44,2,6.62-2,1.62-4.85,1.11-7-.13l0,0c.32,1.45,2.37,10.7,4.49,9.49a12.37,12.37,0,0,0,4.77-4.67,30.59,30.59,0,0,0,3.52-13.69A68.09,68.09,0,0,0,249.34,0h1.72c2,12.65.58,27.84-10.64,32.08a.78.78,0,0,1-.9-.36,39.51,39.51,0,0,1-4-10.5,26.1,26.1,0,0,1-19.62,6.28A26.38,26.38,0,0,1,201,20.59a13.45,13.45,0,0,0,4.41,6.9.71.71,0,0,1-.49,1.2c-12.13-1.13-17.64-10.54-18.09-21.49a12.45,12.45,0,0,0-1.21,3.65C185.49,11.54,184.56,11.48,184.24,11Zm53.21,8.41c1.64.78,3.63,1.15,5.2.11,2.08-1.39-.23-3.28-1.53-4.16a.82.82,0,0,1-.19-.18A29.31,29.31,0,0,1,237.45,19.43Zm-39.79-2.31a31,31,0,0,1-3.24-4.87c-1.19,1.45-2.19,3.58-1,5.22a2.08,2.08,0,0,0,2.14.8A5.12,5.12,0,0,0,197.66,17.12Z"/>
      <path class="cls-3" d="M202.51.59a20.51,20.51,0,0,0,2.06,3.46,8.31,8.31,0,0,0,.71.86c1.16,1.24,3-.62,1.85-1.85-.07-.08-.12-.17-.19-.25l.06-.25a1.1,1.1,0,0,0,1.36-1.07A8.36,8.36,0,0,1,208.57,0H205.4l0,.08L205.31,0h-2.92A1.27,1.27,0,0,0,202.51.59Z"/>
      <path class="cls-3" d="M228.14.56a1.14,1.14,0,0,0,0,1.53c.26.27.49.58.73.87.5,1.26,1.36,2.58,2.41,2.77a1.37,1.37,0,0,0,1.33-.66,1,1,0,0,0,1.09-.29A7.36,7.36,0,0,0,235.35,0h-2.66a17.26,17.26,0,0,0-1.25,1.82l-.29-.23-.64-.84a1.35,1.35,0,0,0-.95-.49c-.05-.05-.09-.11-.14-.15a1.1,1.1,0,0,0-.14-.11h-.76A.86.86,0,0,0,228.14.56Z"/>
      <path class="cls-3" d="M217.92,7.81a17.18,17.18,0,0,1,2.63,1.44,2,2,0,0,1,.74.85h0a1.84,1.84,0,0,1-.55.21c-.66.18-1.26.08-1.71.7a.56.56,0,0,0,0,.6c1,1.3,3.72.22,3.91-1.31.25-2-3.2-3.12-4.58-3.53C217.75,6.59,217.34,7.53,217.92,7.81Z"/>
      <path class="cls-3" d="M232.75,12.31c.38-.61-.53-1.33-1-.77-6.21,7.6-15.17,9.59-22.56,2.12-.42-.43-1,.2-.65.65C215.47,22.52,227.06,21.44,232.75,12.31Z"/>
      <path class="cls-3" d="M118.33,43.27a22.87,22.87,0,0,0-2.47.62.77.77,0,0,1-1-1c1.55-6,4.54-12.5,11-14.4,6.2-1.82,13.52-.41,19.29,2.26.43.2.11.82-.31.73-5.71-1.12-11.77-3.51-17.64-1.76s-8.82,6.7-10.48,12.28a11.23,11.23,0,0,0,3.17-.9c.62-.33,1.54.39,1,1.05-3.57,4.83-7,10.2-8.74,16-1.07,3.52-2,7.56-.9,11.2,1.41,4.74,3.53,4.61,7.3,2.49.49-.28,1.23.19,1,.78C116,82.71,126.84,89.35,135,93c-1.15-3.74-1.21-7.39.84-10.87A30.25,30.25,0,0,1,124,70.63s0,0-.09.05c-3,1.08-7.3.48-8.29-3.12a4.91,4.91,0,0,1,.58-4.12,5.52,5.52,0,0,1,1.66-1.57,6,6,0,0,1,2.35-.52.5.5,0,0,1,.56.33C119,51.81,123,42,132.58,37.12a.8.8,0,0,1,.81,1.39c-5.46,3.72-9.19,8.82-10.48,14.53,13.44,10.59,36.45,8.67,50.39.18a.7.7,0,0,1,.9.2c-.71-5.64-3.88-10.77-10.45-14-1.32-.64-.17-2.6,1.14-2,14.49,7,14,23.56,6.21,35.28,2.26.78,4.84.82,6.12-1.61a4.65,4.65,0,0,0-1.51-6.09c-.86-.67.36-1.89,1.21-1.2a6.16,6.16,0,0,1,1.48,8.36,5.43,5.43,0,0,1-7.61,1.24.47.47,0,0,1-.1-.1,31.38,31.38,0,0,1-7.77,7.82,18.39,18.39,0,0,1,4.45,12.6c3.42-4.46,6.67-8.78,7.44-14.65a.84.84,0,0,1,1.65-.23,52.55,52.55,0,0,0,2,5c7.2-12.4,9.75-26.05.47-38.35-.58-.76.73-1.77,1.33-1,1.59,2,3.31,3.78,4.85,5.77,1-15.9-25.95-25.93-37.71-17.82-.86.59-1.61-.77-.81-1.37C160,21,190.06,34.61,186.45,52.7a.83.83,0,0,1-1.51.2l0-.06c4.09,11,.74,22.77-5.84,33.41a.87.87,0,0,1-1.57-.21c-.51-1.33-1.09-2.6-1.62-3.89-1.6,5.7-5.28,10.13-9,14.89-.53.68-1.48-.07-1.33-.77,1.14-5.36-.33-10.24-3.46-14.51a23.6,23.6,0,0,1-11.93,3.88,27.91,27.91,0,0,1-12.9-2.74c-2.14,3.65-1.65,7.45-.17,11.37.28.74-.61,1.14-1.18.9-8.29-3.56-20.8-10.75-18.09-21.3-1.27.62-2.57,1.18-3.81,1.89a.71.71,0,0,1-.86-.11C104.89,65.87,111.88,52.46,118.33,43.27ZM123.15,69a27.22,27.22,0,0,1-1.13-2.6,27.68,27.68,0,0,1-1.23-4.53.45.45,0,0,1-.34.39c-1.88.55-3.78,2.74-3.08,4.79C118.23,69.58,121,69.54,123.15,69Zm28,14.29c13.24-1.73,24.16-16.57,23.07-29.16a.45.45,0,0,1-.13.15C161,64.5,135.41,65.74,122.7,54.11a21.54,21.54,0,0,0,2.19,13.38C129.68,77.05,140,84.77,151.2,83.31Z"/>
      <path class="cls-3" d="M138.13,67l-1.86,1.87a1.57,1.57,0,0,1-.29-1,1.05,1.05,0,0,0-.66-1,.48.48,0,0,0-.69,0,1,1,0,0,0-.75.73,3.79,3.79,0,0,0,1.84,4,1.17,1.17,0,0,0,1.44-.19l2.68-2.65A1.21,1.21,0,0,0,138.13,67Z"/>
      <path class="cls-3" d="M159.8,72a1,1,0,0,0,1.4-.37A38.25,38.25,0,0,0,163.91,67c.63-1.22-1.22-2.31-1.85-1.08s-1.52,2.42-2.17,3.67a10.18,10.18,0,0,1-1.57-2.18c-.45-.72-1.74-.25-1.41.59A7.81,7.81,0,0,0,159.8,72Z"/>
      <path class="cls-3" d="M148,73.52a5.29,5.29,0,0,1,.54-.52,10.61,10.61,0,0,1,.28,2.81.81.81,0,0,0,1.62,0,10.26,10.26,0,0,0-.2-2.47,2.9,2.9,0,0,0-.65-1.46c-.93-1-2,.18-2.41,1C146.93,73.39,147.61,74,148,73.52Z"/>
      <path class="cls-3" d="M155,74.68a.73.73,0,0,0-1.41-.39c-1.61,4.95-8.55,6.7-11.58,2a.44.44,0,0,0-.76.44C144.23,82.89,153.68,81.12,155,74.68Z"/>
      <path class="cls-3" d="M15.89,86.77c.42.08.75-.53.31-.73A30.73,30.73,0,0,0,0,83.15v1.46C5.32,83.73,10.75,85.76,15.89,86.77Z"/>
      <path class="cls-3" d="M4.41,93.75a.81.81,0,0,0-.82-1.4A24.74,24.74,0,0,0,0,94.59v2.84A28.41,28.41,0,0,1,4.41,93.75Z"/>
      <path class="cls-3" d="M8.1,149.51c-1.48-3.92-2-7.73.18-11.38a27.74,27.74,0,0,0,12.9,2.75A23.57,23.57,0,0,0,33.1,137c3.13,4.28,4.61,9.15,3.47,14.52-.15.69.79,1.45,1.32.77,3.71-4.76,7.4-9.2,9-14.89.54,1.29,1.11,2.56,1.63,3.89a.86.86,0,0,0,1.56.2c6.58-10.64,9.93-22.36,5.84-33.4l0,0a.83.83,0,0,0,1.51-.19C61.07,89.85,31,76.28,17.6,86.36c-.8.61-.06,2,.8,1.38,11.76-8.12,38.73,1.91,37.71,17.81-1.53-2-3.26-3.79-4.85-5.76-.6-.75-1.9.26-1.33,1,9.29,12.3,6.73,25.94-.46,38.34a48.91,48.91,0,0,1-2-5,.85.85,0,0,0-1.66.22c-.76,5.87-4,10.2-7.44,14.66a18.36,18.36,0,0,0-4.44-12.6,31.59,31.59,0,0,0,7.77-7.83.31.31,0,0,0,.09.11,5.43,5.43,0,0,0,7.61-1.25,6.17,6.17,0,0,0-1.47-8.36c-.86-.69-2.07.53-1.21,1.21a4.65,4.65,0,0,1,1.51,6.08c-1.29,2.44-3.86,2.39-6.12,1.62,7.82-11.72,8.27-28.23-6.22-35.28-1.31-.64-2.46,1.32-1.14,2,6.57,3.19,9.75,8.32,10.45,14a.69.69,0,0,0-.89-.21C32.3,115.77,13.56,118.2,0,112v1.64c13.61,6.82,34,4.66,45.15-4.06a.7.7,0,0,0,.14-.16c1.09,12.6-9.83,27.43-23.08,29.17-8.62,1.12-16.75-3.23-22.21-9.67v3.46a30.61,30.61,0,0,0,6.82,5c-2.05,3.48-2,7.12-.83,10.87a59.17,59.17,0,0,1-6-3.1v1.77a63.23,63.23,0,0,0,6.93,3.48C7.49,150.65,8.38,150.24,8.1,149.51Z"/>
      <path class="cls-3" d="M6.73,126.75a1.2,1.2,0,0,0,1.45-.19l2.67-2.66c1.11-1.09-.61-2.81-1.71-1.7l-1.85,1.87a1.57,1.57,0,0,1-.3-1,1.06,1.06,0,0,0-.65-1,.51.51,0,0,0-.7,0,1,1,0,0,0-.75.74A3.8,3.8,0,0,0,6.73,126.75Z"/>
      <path class="cls-3" d="M30.82,127.27a1,1,0,0,0,1.39-.37,38.47,38.47,0,0,0,2.71-4.64c.64-1.23-1.22-2.31-1.85-1.08s-1.51,2.41-2.17,3.67a11,11,0,0,1-1.57-2.19c-.44-.71-1.74-.25-1.41.6A7.82,7.82,0,0,0,30.82,127.27Z"/>
      <path class="cls-3" d="M19,128.76a3.32,3.32,0,0,1,.54-.52,10.56,10.56,0,0,1,.27,2.81.82.82,0,0,0,1.63,0,10.23,10.23,0,0,0-.21-2.47,3,3,0,0,0-.64-1.47c-.93-1-2,.19-2.42,1C18,128.63,18.62,129.23,19,128.76Z"/>
      <path class="cls-3" d="M26,129.91a.74.74,0,0,0-1.42-.39c-1.6,5-8.55,6.71-11.57,2a.45.45,0,0,0-.77.45C15.24,138.12,24.69,136.36,26,129.91Z"/>
      <path class="cls-3" d="M292.23,50,300,47.32V50q-18.06,6.26-35.94,13c2,3.14,3.66,6.46,5.48,9.71.64,1.13,1.29,2.6,2.09,3.85a1.22,1.22,0,0,1,.75,1,3.22,3.22,0,0,0,4,1.17A123,123,0,0,1,295,72.42q2.5-.61,5-1.14v2.86a127.5,127.5,0,0,0-25.59,8.33,1.33,1.33,0,0,1-1.59-.2c-.77-.94-1.47-1.92-2.14-2.91-1.71,1.31-3,1.93-4.43,1.13C266.15,83,265,85.11,263,87.3a1.14,1.14,0,0,1-1.62,0c-.6-.77-1.23-1.42-1.81-2.08-.08,3.2-.59,6.7-2.4,8.87-1.63,2-3.88,1.37-5.14-.75-5.11-8.59-.25-19.32,4.07-27.34a1,1,0,0,1,1-.54,17.67,17.67,0,0,1,7,2.39c-.73-1.31-1.48-2.61-2.29-3.87,0,0,0-.09-.07-.14l-.57.21c-.79.3-1.31-1-.57-1.34C270.68,57.57,281.49,53.69,292.23,50Zm-33,17.87c-2.12-.31-2.14,1-2.84,2.66a58.17,58.17,0,0,0-3.82,10.84c-.43,2-1,4.51-.46,6.58.12.46,2.31,7,3.58,4.17,1.51-3.31,1.66-7.17,1.45-10.75-.09-1.37,1.83-1.45,2.25-.3a11.19,11.19,0,0,0,2.74,3.69,7.21,7.21,0,0,0,1.47-6.94c-.27-1,1.18-2.08,1.93-1.12,1.56,2,2.52,1.76,3.85.76-1.43-2.29-2.71-4.68-4-7.06A17.46,17.46,0,0,0,259.27,67.84Z"/>
      <path class="cls-3" d="M276.43,188.07c-3.12-2.79-2.85-7.88-2.74-11.66.23-7.89,1.91-15.88,3.79-23.52a.56.56,0,0,0-1.07-.3c-2.39,8.18-4.4,16.57-4.9,25.1-.35,6.09,1.27,12.39,7.62,14.4,3.3,1,7.13.77,10.54.93s6.89.58,10.33,1v-2.11c-4.75-.56-9.49-1.19-14.24-1.37C282.49,190.43,279,190.37,276.43,188.07Z"/>
      <path class="cls-3" d="M278.81,150.45c-1.33-.61-2.49,1.27-1.16,2,5.25,2.89,12.31,2.93,18.14,3.43,1.41.12,2.81.22,4.21.3v-2.37c-2.35-.2-4.69-.46-7-.67C288.35,152.73,283.12,152.43,278.81,150.45Z"/>
      <path class="cls-3" d="M299.35,162c-1.6,3-1.34,7.06-1.29,10.4a129.82,129.82,0,0,1-.12,13.81c-.09,1,1.48,1.17,1.69.23.14-.66.26-1.33.37-2V161.55A.78.78,0,0,0,299.35,162Z"/>
      <path class="cls-3" d="M279.89,165c0-1.13-.21-2.29-.15-3.42l1.78,3.75a.66.66,0,0,0,1.13,0c.63-1.06,1.38-2,2-3a8.54,8.54,0,0,1,1.92,3.52.64.64,0,0,0,.94.38,7.16,7.16,0,0,0,2.88-2.84c.73,1.32,1.54,1.53,3.42,1,.89-.23.5-1.53-.38-1.37-1.24.23-1.24,1.57-2.38-1.42a.67.67,0,0,0-1.29,0,6.86,6.86,0,0,1-2.22,3c-.55-1.37-1.68-2.47-2.38-3.78a.63.63,0,0,0-1.08,0c-.62,1-1.33,1.9-2,2.87-.72-1.38-1.43-2.75-2.16-4.11a.54.54,0,0,0-1,.13c-.51,1.75,0,3.5.15,5.28A.37.37,0,0,0,279.89,165Z"/>
      <path class="cls-3" d="M277.36,174.83c.29-.68.52-1.38.76-2.07a11.67,11.67,0,0,1,.68,2.48.73.73,0,0,0,1.34.36,39.8,39.8,0,0,1,2.7-3.23,16.51,16.51,0,0,1,1.23,1.92.69.69,0,0,0,.93.24c1-.63,1.79-1.47,2.73-2.18,1.51,1.84,2.62,1.16,4.91.13a.53.53,0,0,0-.13-1c-1.64-.29-2.64,1.55-4-.49a.7.7,0,0,0-1-.25c-1,.64-1.77,1.5-2.69,2.21a6.89,6.89,0,0,0-1.76-2.19.69.69,0,0,0-.93.24,23.16,23.16,0,0,1-2.29,2.65,17.93,17.93,0,0,1-1-3.11c-.11-.67-1-.53-1.22,0-.44,1.29-.67,2.61-1.14,3.89C276.3,175,277.14,175.33,277.36,174.83Z"/>
      <path class="cls-3" d="M293.66,181.54c-1.27-.07-1.7-.6-2.8-1.24a1.9,1.9,0,0,0-1.58-.09,1.67,1.67,0,0,0-1,.83,12.77,12.77,0,0,0-1.12-1.88.81.81,0,0,0-1.27.17,24.08,24.08,0,0,1-1.69,2.79c-.65-1.38-1.41-2.68-2.17-4a.68.68,0,0,0-1.17,0,12.41,12.41,0,0,0-1.24,4.2c-.05.6,1,.74,1.06.14a9,9,0,0,1,.78-2.49,32,32,0,0,1,1.82,3.83.77.77,0,0,0,1.28.34,16.18,16.18,0,0,0,2.05-2.81,15,15,0,0,0,1.19,2.05.84.84,0,0,0,1.54-.42c.21-1.74,1.08-.26,1.82.1a4.68,4.68,0,0,0,2.7,0C294.76,182.9,294.48,181.58,293.66,181.54Z"/>
      <path class="cls-3" d="M295.86,203.35c1.21-.56,2.64-1.3,4.14-2V204c-6.27,2.5-12.07,6.11-18.15,9a.56.56,0,0,0,0,.12c4.86,2.18,14.47,8.72,18.11,5v3a7.91,7.91,0,0,1-4.48.31c-1,4.1-2,8.62-4,12.39a5.45,5.45,0,0,0,3.12.52A31.92,31.92,0,0,0,300,233.3v2.53c-3,1-6.34,1.72-8.87.72-3.72-1.47-5.7-6.11-7.12-9.54a111.19,111.19,0,0,1-4.58-14,1.13,1.13,0,0,1,1.2-1.42C285.66,208.74,290.63,205.77,295.86,203.35ZM282.4,215.12c1.4,5.41,3.47,13.93,7.44,17.58l.12-.35c0-.13,0-.27,0-.4a.2.2,0,0,1,.18-.19c1.16-3.58,2.09-7.21,3.21-10.8C289.55,219.68,285.49,217,282.4,215.12Z"/>
      <path class="cls-3" d="M300,94.59v2.84a22.73,22.73,0,0,0-6.07,10.85A30.14,30.14,0,0,0,300,112v1.64a27.38,27.38,0,0,1-6.29-4.25,21.62,21.62,0,0,0,2.19,13.38,31.83,31.83,0,0,0,4.1,6.15v3.46a29.79,29.79,0,0,1-5-6.48l-.09.06c-3,1.08-7.3.47-8.29-3.12a4.9,4.9,0,0,1,.59-4.13,5.41,5.41,0,0,1,1.66-1.57,5.86,5.86,0,0,1,2.34-.51.5.5,0,0,1,.57.33C290.26,108.38,293,99.87,300,94.59Zm-7,27.07a28,28,0,0,1-1.24-4.53.43.43,0,0,1-.34.38c-1.88.56-3.77,2.74-3.07,4.8.85,2.51,3.61,2.47,5.77,1.94A25.93,25.93,0,0,1,293,121.66Z"/>
      <path class="cls-3" d="M285.92,98.18a.78.78,0,0,0,.95.95,19,19,0,0,1,2.47-.62c-6.45,9.18-13.44,22.6-5.18,32.38a.73.73,0,0,0,.86.11c1.24-.71,2.54-1.27,3.81-1.89-2,7.82,4.36,13.8,11.17,17.82v-1.77c-6.46-3.9-12.13-9.58-9.33-17.26.21-.6-.53-1.06-1-.78-3.77,2.12-5.88,2.25-7.3-2.49-1.09-3.65-.16-7.68.91-11.2,1.75-5.8,5.16-11.16,8.73-16,.49-.66-.42-1.39-1.05-1a11.86,11.86,0,0,1-3.16.9c1.66-5.58,4.51-10.52,10.47-12.29a15.7,15.7,0,0,1,1.75-.39V83.15a19.78,19.78,0,0,0-3.08.63C290.46,85.68,287.47,92.2,285.92,98.18Z"/>
      <path class="cls-3" d="M48.6,166.34c3.12-7.1,9.25-18.1,17.57-20,7.5-1.69,12.56,8.39,13.9,14.46a.57.57,0,0,1-.89.56c-4.41-2.5-4.87-14.45-11.79-12.91-7.08,1.57-12.47,10-15.49,16.11-1.68,3.37-6.75,16.85-.67,18.29,6.89,1.65,9.83-11.49,11.45-16a1.11,1.11,0,0,1,2.08.76c-.4,1.22-1.07,9.67,2.48,6.15a6.21,6.21,0,0,0,1.68-4.24,20,20,0,0,1,0-2.2c.08-1.47,2.16-1.2,2.22.18,0,.31,0,.63,0,1,.2,3.86,2.87,6.44,6.22,2.89,2-6.22,4-12.44,6.4-18.55,0-.12-.08-.24-.11-.36a1,1,0,0,1,.81-1.28.75.75,0,0,1,1.21.05c18.74,4.37,38.95,4.57,56.31,13.61a1.21,1.21,0,0,1,.7,1.51c-.86,2.88-1.63,5.79-2.39,8.7,4.2-4.41,13-3.38,17.91-.07,8.1,5.49,10.39,17.23,10.92,26.36.22,3.68.06,9.11-3,11.77-2.45,2.12-6.16,3.15-9.09,1.33-5.92-3.68-8.7-12.29-9.86-19.6-.43,1.06-.89,2.11-1.34,3.19a1,1,0,0,1-1.31.61,10.34,10.34,0,0,1-5.15-4.28,1,1,0,0,1-1,.59c-1.22-.11-2.46-.69-3.68-.74a71.61,71.61,0,0,1-4.14,9.22,1.23,1.23,0,0,1-1.42.43c-10.06-3.13-20.37-5.32-30.45-8.34-7.19-2.16-16-4.35-21.92-9.25-3.18-2.64-2.17-6.53-1-9.93.16-.46.31-.93.47-1.4a5.75,5.75,0,0,1-4.14.17,3.78,3.78,0,0,1-2-1.51,4.46,4.46,0,0,1-4.92,2.87,3.38,3.38,0,0,1-2.72-2c-2.17,5.72-5.56,12-11,10.74C43.6,183.34,46.26,171.69,48.6,166.34ZM129.18,200a.82.82,0,0,1-.15-.24c-3-6.43-5.58-13.21-9.88-18.88-4,2.53-8.63,4.62-13.41,3.39-5.42-1.39-9.52-5.18-12.73-9.93v0h0a.82.82,0,0,1-.12.2,2.68,2.68,0,0,1-.18.28c0,.22.09.43.14.65s-.3.58-.49.3c-.06-.09-.14-.18-.21-.27-1.64,1.72-4.5,3-6.32,4.09s-3.51,2.07-5.2,3.2a15.42,15.42,0,0,1-2.35,1.47,16.19,16.19,0,0,0,5.06,3,114.68,114.68,0,0,0,14.47,5.36c5.71,1.71,11.47,3.2,17.24,4.69,2.82.73,5.65,1.46,8.46,2.25S127.79,201.27,129.18,200Zm9.91-20a.43.43,0,0,1-.15.15c-1.07,4-2.18,8-3.54,11.92.74.11,1.43.35,2.16.53a27.16,27.16,0,0,0,.43-3.78c0-.19,0-.37,0-.57a1.06,1.06,0,0,1,2.09-.1,9.46,9.46,0,0,1,0,1.17,7.58,7.58,0,0,0,4.25,6.86,29.55,29.55,0,0,0,2.26-6.19c.2-1,1.9-1.34,2-.1.52,6.41,2.24,14.07,6,19.36,2.32,3.23,7.35,6.37,10.46,1.78,2.25-3.32,2.19-7.89,1.74-11.72-.76-6.44-2.13-15.53-7-20.34a17,17,0,0,0-11-5C144,173.88,141.43,176.06,139.09,180.08Zm.79-12.54c-6.91.63-13.57,8.5-18.92,12.18l-.41.28c4.39,5.28,7.2,11.63,10,17.84a.3.3,0,0,0,0-.08C134.82,188.05,136.94,177.66,139.88,167.54ZM86.57,153.83c3.48,10.85,11.18,32.18,25.06,28.06a25.41,25.41,0,0,0,6.1-2.81.79.79,0,0,1,1.3-.84c3.41-2.28,6.55-5.08,9.81-7.48,2.8-2.06,5.85-4.35,9.27-5.22C122,158.16,103.71,157.6,86.57,153.83Zm-9.38,28.76c1.42-1.88,4.52-3.15,6.35-4.23s3.48-2,5.23-3c1.11-.63,2.24-1.58,3.52-1.77a1,1,0,0,1,.17,0c-3.57-5.59-6-12.36-7.86-18.16-1.79,5.29-3.69,10.62-5.3,16a.91.91,0,0,1-.08,1.11c-.12.15-.25.27-.37.41-.64,2.24-1.24,4.49-1.74,6.75A5.32,5.32,0,0,0,77.19,182.59Z"/>
      <path class="cls-3" d="M52.12,16.9c5.52-.66,6.53-7.74,6.6-13.87A3.4,3.4,0,0,0,62,4a4.36,4.36,0,0,0,3.57-4H63.28A5.15,5.15,0,0,1,63,.71C61.86,3.16,60.67,1.89,59.8,0H56.52c.23,5.9.08,14.15-5.4,14.8-5.19.61-5.95-9.32-5.82-14.8H43c0,.05,0,.11,0,.17C42.6,6,44.11,17.85,52.12,16.9Z"/>
      <path class="cls-3" d="M161.3,8c3.38.7,6.51-1.54,8.08-4.38A7.7,7.7,0,0,0,170.26,0h-2.21a10,10,0,0,1-.28,2.11c-1.35,5.38-7.15,4.16-10.44,1.93a25.87,25.87,0,0,1-4.58-4H150C153.13,3.88,157,7.1,161.3,8Z"/>
      <path class="cls-3" d="M76.23,9.18c7.23,2.57,16.27,1.58,23.76,1.14,10.51-.63,21-2.12,31.46-2.64a1.22,1.22,0,0,0,1.19-.9A67.53,67.53,0,0,0,133.27,0h-2.42c0,.48,0,1,0,1.44a.28.28,0,0,1,0,.09L129.27,0h-3.09c1.27,1.31,2.54,2.63,3.81,3.92a1.63,1.63,0,0,0,.22.17c-.88,1.62-2.71,1.35-5.48,1.57s-5.81.51-8.71.8C110.09,7,104.17,7.63,98.22,8a116.84,116.84,0,0,1-15.43-.05A16.35,16.35,0,0,1,77,6.85,15.58,15.58,0,0,0,78.7,4.66c1.17-1.6,2.45-3.11,3.68-4.66h-3C78,1.58,76,3.58,75.39,5.59a5.36,5.36,0,0,1-1.08-2.74C74.18,1.9,74.08,1,74,0H71.85c0,.07,0,.14,0,.21C72,3.79,72.33,7.79,76.23,9.18Z"/>
      <path class="cls-3" d="M69.64,0H66.36A3.63,3.63,0,0,0,68,.32,6.12,6.12,0,0,0,69.64,0Z"/>
      <path class="cls-3" d="M30.23,261.32a1.13,1.13,0,0,0-.09-.43c3.1-.5,6-2,5.42-5.68s-5.33-5.44-8.3-6.41C18.81,246,9.19,245.63,0,246.35v2.53a79.55,79.55,0,0,1,25.23,1.88c2.81.72,7.05,2,8,5.1,1.24,4.25-12.8,2.57-14.67,2.39-6.05-.61-12.28-1.38-18.53-1.77v2.38c2.83.15,5.62.36,8.35.61,6.52.6,13,1.9,19.56,1.62a1.57,1.57,0,0,0,0,.23A170.52,170.52,0,0,0,32.6,300h2.45c-.44-1.69-.86-3.4-1.22-5.11A169.09,169.09,0,0,1,30.23,261.32Z"/>
      <path class="cls-3" d="M0,274.86v-7.19c6.89-.47,13.77-1.37,20.69-1.08a1.16,1.16,0,0,1,1.12.85,23.42,23.42,0,0,1,.05,6.09,1.19,1.19,0,0,1-1.17,1.17A190.37,190.37,0,0,0,0,274.86Zm16.48-2.63,1.09,0c0-.15,0-.29-.05-.43a1.12,1.12,0,0,1-.93.17A1.63,1.63,0,0,1,16.48,272.23Z"/>
      <path class="cls-3" d="M274.09,259.31a1.14,1.14,0,0,0,1.89.06.81.81,0,0,0,.57.13c.58-.09,1.19-.14,1.78-.21,0,0,0,.06,0,.1q-.58,18.93-1.14,37.86c0,.91-.07,1.83-.11,2.75h2.18c.35-13.53.66-27.05.27-40.61a.56.56,0,0,0-.05-.23,131.38,131.38,0,0,1,20.54-.3v-2.38c-8.07-.5-16.15-.38-23.87,1.52a.75.75,0,0,0-.13.06c-1.91-6.45,14.35-8.16,17.95-8.6,2-.24,4-.44,6.05-.58v-2.53c-3.4.26-6.73.67-9.93,1.18C285.23,248.3,270,251.16,274.09,259.31Z"/>
      <path class="cls-3" d="M286.62,267.63c-.85-.09-1,1.31-.2,1.49l.12,0c-1.6,1.64-1.42,3.85-1.06,6a1.15,1.15,0,0,0,1.14.87c4.46-.49,8.92-.88,13.38-1.14v-7.19A75.69,75.69,0,0,1,286.62,267.63Z"/>
      <path class="cls-3" d="M237.62,281.24c-1-.9-2.51.56-1.49,1.5a24.15,24.15,0,0,1,3.81,4.5,27.94,27.94,0,0,1-10.82-.8c-.71-.21-1.54.68-1,1.34a25.49,25.49,0,0,1,2.23,4.19A66.44,66.44,0,0,1,214,285.89a.89.89,0,0,0-1.21,1.21,29.65,29.65,0,0,1,1.46,5.57c-5.41-1.72-12.09-4.61-13.49-10.39a5.92,5.92,0,0,1,1.46,0c.31,0,.33-.38.14-.53-7.61-5.69-11.35,14.18-11.27,18.26h2.34c-.19-6.84,1.38-16.05,6.55-17.56,1,7,9.56,10.14,15.34,12.39a.88.88,0,0,0,1.08-1.08,51,51,0,0,1-1.32-5.32A71.18,71.18,0,0,0,232,294.2c.69.14,1.55-.64,1-1.34a25.41,25.41,0,0,1-2.21-4.15,27.91,27.91,0,0,0,10.11.12A22.67,22.67,0,0,1,243.61,300h2.31A23.72,23.72,0,0,0,237.62,281.24Z"/>
      <path class="cls-3" d="M248.17,288.59c2.38.81,4.81,1.36,7,2.71a.76.76,0,0,0,1.14-.65c-.64-7.72-4.28-14.12-11.78-16.94a50,50,0,0,0-12.33-2.61c-2.12-.23-4.24-.38-6.35-.54-2.28-.18-6.57.47-4.94-2.84a.81.81,0,0,0-.69-1.2c-7.11-.64-15-.77-21,3.56a.67.67,0,0,0-.28.68c-6.25-2.11-12.25-.54-15.37,5.51-.29.55.18,1.35.85,1.11a15.48,15.48,0,0,1,6.43-1c-7.41,4.91-11.18,14.6-10.39,23.59H182c-.87-9.19,3.1-19.31,11.22-23.42a.69.69,0,0,0-.16-1.25,15.22,15.22,0,0,0-7.17.05c3-4.19,7.66-4.77,12.84-3.53a.52.52,0,0,0,.67-.54.59.59,0,0,0,.47-.09c5.71-3.61,12.58-3.73,19.13-3.21a12,12,0,0,0-.89,2.43.81.81,0,0,0,.77,1c14,1.87,33.16.21,35.74,17.86-2.43-1.15-5-1.67-7.55-2.71a.74.74,0,0,0-.91.92A48.09,48.09,0,0,1,249.34,300h1.72A59.78,59.78,0,0,0,248.17,288.59Z"/>
      <path class="cls-3" d="M207.54,298.17A2.38,2.38,0,0,0,205.4,300h3.17c0-.13.05-.25.08-.38A1.16,1.16,0,0,0,207.54,298.17Z"/>
      <path class="cls-3" d="M204.61,298.69c-.73-1.36-2.58-.29-2.21,1.05a1.11,1.11,0,0,0,0,.26h2.92l-.17-.25C205,299.4,204.8,299,204.61,298.69Z"/>
      <path class="cls-3" d="M228.52,300h.76A.68.68,0,0,0,228.52,300Z"/>
      <path class="cls-3" d="M233.4,299.18c-.25.26-.49.54-.71.82h2.66A1.15,1.15,0,0,0,233.4,299.18Z"/>
      <path class="cls-3" d="M54.46,276.93c6-3.82,10.5,7.24,15.51,8.07.45.07.93-.37.64-.83-3.34-5.25-11.57-13-18-8.8C45.46,280,43.47,292.25,43,300H45.3c0-1.08.08-2,.15-2.62C46.2,290.65,48.35,280.84,54.46,276.93Z"/>
      <path class="cls-3" d="M170.26,300h-2.21c.1-3.27-1.25-6.66-2.68-9.49-2.93-5.78-7.34-13.85-13.56-16.69a16.89,16.89,0,0,0-12-1c-4.65,1.57-6.3,4.49-7.12,9.07a.61.61,0,0,1-.09.2c.38,4.13.71,8.27.78,12.41.73-.15,1.46-.16,2.21-.25a30,30,0,0,0-.89-3.69c-.07-.18-.16-.35-.22-.53a1.05,1.05,0,0,1,1.92-.81c.18.37.32.73.45,1.08a7.58,7.58,0,0,0,6.35,5,29.14,29.14,0,0,0,0-6.6c-.16-1,1.33-1.9,1.85-.78A48.08,48.08,0,0,0,152.75,300H150a50.23,50.23,0,0,1-4.68-7c0,1.14-.11,2.28-.16,3.45a1,1,0,0,1-1,1,10.37,10.37,0,0,1-6.31-2.25,1,1,0,0,1-.74.9c-1.19.32-2.55.2-3.72.57,0,1.1,0,2.2-.08,3.3h-2.42c.37-10.07-1.09-20.08-1.78-30.11-6.27,3-9.8,12.65-13.57,17.94-.09.14-.19.27-.29.4,5.32,3.09,9.74,7.42,14.06,11.77h-3.09a69.67,69.67,0,0,0-12-10.42c-2.88,3.76-6.51,7.31-11.42,7.8-5.57.56-10.72-1.59-15.37-4.95v0h0v0a.62.62,0,0,1,0,.23c0,.11,0,.21-.07.32l.35.56c.24.22-.08.65-.35.46-.09-.07-.2-.12-.29-.19-1,2.19-3.21,4.35-4.53,6l-.11.13h-3l.48-.56q1.91-2.35,3.87-4.66a11.21,11.21,0,0,1,2.69-2.88.55.55,0,0,1,.17,0c-5.29-4-9.89-9.55-13.64-14.35.14,5.58.19,11.24.53,16.83a.92.92,0,0,1,.3,1.08c-.06.17-.13.34-.2.51q.15,2,.36,4.08H71.85c0-.42,0-.85,0-1.27A5.64,5.64,0,0,1,69.64,300H66.36a4.32,4.32,0,0,1-.76-.42l-.06.42H63.28a6.74,6.74,0,0,0-.15-3.85,19.64,19.64,0,0,1-.75-2.07c-.43-1.41,1.61-1.87,2.15-.59.11.28.22.59.33.9,1.52,3.57,4.91,5.07,6.83.58-.23-6.54-.52-13.05-.37-19.61l-.23-.3a1,1,0,0,1,.32-1.49.76.76,0,0,1,1.16-.37c19.09-2.34,38.14-9.11,57.55-6.59a1.22,1.22,0,0,1,1.18,1.18c.18,3,.46,6,.75,9,2.42-5.59,11.06-7.65,16.79-6.23,9.49,2.36,15.68,12.61,19.33,21A21.48,21.48,0,0,1,170.26,300Zm-43.53-31.39c-17.63-1.39-35,4.39-52.42,6.74,7,9,21.56,26.38,33.18,17.73a25.44,25.44,0,0,0,4.76-4.74.78.78,0,0,1,.93-1.23c2.42-3.32,4.41-7,6.64-10.4C121.74,273.81,123.81,270.61,126.73,268.61Z"/>
      <path class="cls-3" d="M56.35,295.79c0,1.06.1,2.54.17,4.21H59.8a15.66,15.66,0,0,1-1.24-4.21A1.11,1.11,0,0,0,56.35,295.79Z"/>
      <path class="cls-3" d="M194.16,50.94c6.94-4.84,14.67-8.48,22.33-12,2-.92,4.51-3.11,6.18-.87a66,66,0,0,1,3.59,5.62c2.13,3.6,4.08,7.29,6.32,10.82-10.26,6-20.31,12.8-31.55,16.87-1.13-3.32-2.57-6.54-3.89-9.79-1.16-2.88-3-6.69-2.6-9.89,0-.35-.45-.42-.62-.17-1.58,2.4.19,6.27,1,8.65,1.41,4.27,3.34,8.35,4.69,12.63a.93.93,0,0,0,1.14.65c12-4.15,22.68-11.46,33.61-17.84a.92.92,0,0,0,.33-1.26c-4.19-6.42-7.37-13.45-12.15-19.49a.93.93,0,0,0-1.11-.14c-9.63,4.29-19.51,8.52-28.18,14.6C192.24,50,193.17,51.63,194.16,50.94Z"/>
      <path class="cls-3" d="M214.49,44.05c.89-1.34,3.11-2,4.56-2.49a.8.8,0,0,1,.75.2,21.56,21.56,0,0,1,3.77,4.33.79.79,0,0,1-.12.93c-1.2,1.09-3.69,2.73-5.43,2.25-.73-.2-1.49-1.68-1.76-2.29a6.45,6.45,0,0,1-.59-2.13l-.25.13C214.86,45.25,214.09,44.67,214.49,44.05Zm2.11.34c.18,1,1,3.66,2.23,3.38a7.83,7.83,0,0,0,3.08-1.46,22,22,0,0,0-2.84-3.11A24.4,24.4,0,0,0,216.6,44.39Z"/>
      <path class="cls-3" d="M209.75,52.33c-1.66.33-3.39,2-4.78,2.87s-3.31,1.75-4.2,3.15c-.15.23.13.46.35.35,1.76-.84,3.42-1.86,5.09-2.87,1.1-.68,3.62-1.62,4.06-3A.43.43,0,0,0,209.75,52.33Z"/>
      <path class="cls-3" d="M213.51,54.9C212.3,55,211,56.1,210,56.69c-1.83,1.05-3.64,2.14-5.52,3.11-.33.17,0,.65.29.49,1.64-.82,3.25-1.72,4.87-2.58a21.08,21.08,0,0,1,4-1.93A.45.45,0,0,0,213.51,54.9Z"/>
      <path class="cls-3" d="M205.51,63.91c-.38.25,0,.86.36.62,2.3-1.4,4.64-2.73,7-4s5-1.84,7.2-3.1c.39-.22.37-1-.13-1-2.09-.31-4.49,1.31-6.23,2.28C210.85,60.22,208.23,62.15,205.51,63.91Z"/>
      <path class="cls-3" d="M96.43,58.42c3.68-9.08,8.73-17.55,11.59-27a1.18,1.18,0,0,0-.66-1.27c-11.52-7-23.16-14.27-35.86-18.94-1.43-.52-2.45,1.63-1,2.16,10.13,3.77,19.58,9.22,28.87,14.69,2.42,1.43,6.55,2.47,5.41,5.86a84.1,84.1,0,0,1-3.28,7.86c-2.23,4.86-4.67,9.6-6.75,14.52C81,50,66.52,44.36,54.06,35.53c2.66-3.61,5-7.47,7.43-11.22,2.18-3.32,4.83-8,8.49-9.94.4-.21.1-.78-.27-.77-3.68.09-6.45,4.77-8.38,7.32-3.45,4.59-6.33,9.59-9.84,14.13a1.18,1.18,0,0,0,.15,1.66C64.77,46.33,80.2,52.16,94.86,59A1.2,1.2,0,0,0,96.43,58.42Z"/>
      <path class="cls-3" d="M92.56,31.56l-.31-.17c-.7-.4-.65-1.63.3-1.66,2-.05,4.34,1.83,5.93,3a1,1,0,0,1,.33.92A26.69,26.69,0,0,1,97,40.75a1,1,0,0,1-1.05.54c-2-.46-5.55-1.87-6.32-4-.32-.92.68-2.78,1.12-3.52A8.2,8.2,0,0,1,92.56,31.56ZM91.8,37a9.9,9.9,0,0,0,3.77,2.16,26.73,26.73,0,0,0,1.2-5.24,31.63,31.63,0,0,0-3-1.73C92.85,33.09,90.63,35.94,91.8,37Z"/>
      <path class="cls-3" d="M73.9,27.87c-1.89-.78-4.25-2.2-6.36-2.12a.33.33,0,0,0-.12.63c2.17,1.23,4.45,2.23,6.73,3.24,1.51.67,4.33,2.63,6.08,2.1a.55.55,0,0,0,.17-.92C78.85,29.3,75.85,28.67,73.9,27.87Z"/>
      <path class="cls-3" d="M74.69,34.62a26.32,26.32,0,0,1,4.92,2.76c.48.41,1.24-.25.83-.76-1-1.22-3.06-1.72-4.41-2.37-2.44-1.16-4.91-2.26-7.29-3.52-.42-.22-.72.43-.31.66C70.49,32.52,72.6,33.55,74.69,34.62Z"/>
      <path class="cls-3" d="M64.77,35.61C67.91,37,71,38.49,74.1,40s5.55,3.87,8.49,5.3c.52.25,1.28-.31,1-.89-1.2-2.42-4.65-3.75-6.93-4.88-3.73-1.84-7.66-3.19-11.5-4.76C64.62,34.56,64.23,35.37,64.77,35.61Z"/>
    </pattern>
  </defs>
  <rect class="cls-4" width="300" height="300"/>
</svg>
